<mxfile host="app.diagrams.net" agent="Mozilla/5.0 (Windows NT 10.0; Win64; x64) AppleWebKit/537.36 (KHTML, like Gecko) Chrome/137.0.0.0 Safari/537.36" version="26.3.0">
  <diagram name="Seite-1" id="v6ZPsdcwCDBlFDGAQIbR">
    <mxGraphModel dx="1226" dy="620" grid="1" gridSize="10" guides="1" tooltips="1" connect="1" arrows="1" fold="1" page="1" pageScale="1" pageWidth="2339" pageHeight="3300" math="0" shadow="0">
      <root>
        <mxCell id="0" />
        <mxCell id="1" parent="0" />
        <mxCell id="cowYSEw6Y3cWSE5Tdi7J-1" value="Scenes/Test_A_(2D).unity" style="swimlane;fontStyle=0;childLayout=stackLayout;horizontal=1;startSize=20;horizontalStack=0;resizeParent=1;resizeParentMax=0;resizeLast=0;collapsible=1;marginBottom=0;align=center;fontSize=14;" parent="1" vertex="1">
          <mxGeometry x="600" y="660" width="210" height="320" as="geometry" />
        </mxCell>
        <mxCell id="cowYSEw6Y3cWSE5Tdi7J-3" value="gravity: -12" style="text;strokeColor=none;fillColor=none;spacingLeft=4;spacingRight=4;overflow=hidden;rotatable=0;points=[[0,0.5],[1,0.5]];portConstraint=eastwest;fontSize=12;whiteSpace=wrap;html=1;" parent="cowYSEw6Y3cWSE5Tdi7J-1" vertex="1">
          <mxGeometry y="20" width="210" height="30" as="geometry" />
        </mxCell>
        <mxCell id="cowYSEw6Y3cWSE5Tdi7J-4" value="collisionDamping: 0.95" style="text;strokeColor=none;fillColor=none;spacingLeft=4;spacingRight=4;overflow=hidden;rotatable=0;points=[[0,0.5],[1,0.5]];portConstraint=eastwest;fontSize=12;whiteSpace=wrap;html=1;" parent="cowYSEw6Y3cWSE5Tdi7J-1" vertex="1">
          <mxGeometry y="50" width="210" height="30" as="geometry" />
        </mxCell>
        <mxCell id="cowYSEw6Y3cWSE5Tdi7J-5" value="smoothingRadius: 0.35" style="text;strokeColor=none;fillColor=none;spacingLeft=4;spacingRight=4;overflow=hidden;rotatable=0;points=[[0,0.5],[1,0.5]];portConstraint=eastwest;fontSize=12;whiteSpace=wrap;html=1;" parent="cowYSEw6Y3cWSE5Tdi7J-1" vertex="1">
          <mxGeometry y="80" width="210" height="30" as="geometry" />
        </mxCell>
        <mxCell id="cowYSEw6Y3cWSE5Tdi7J-6" value="targetDensity: 55" style="text;strokeColor=none;fillColor=none;spacingLeft=4;spacingRight=4;overflow=hidden;rotatable=0;points=[[0,0.5],[1,0.5]];portConstraint=eastwest;fontSize=12;whiteSpace=wrap;html=1;" parent="cowYSEw6Y3cWSE5Tdi7J-1" vertex="1">
          <mxGeometry y="110" width="210" height="30" as="geometry" />
        </mxCell>
        <mxCell id="cowYSEw6Y3cWSE5Tdi7J-7" value="pressureMultiplier: 500" style="text;strokeColor=none;fillColor=none;spacingLeft=4;spacingRight=4;overflow=hidden;rotatable=0;points=[[0,0.5],[1,0.5]];portConstraint=eastwest;fontSize=12;whiteSpace=wrap;html=1;" parent="cowYSEw6Y3cWSE5Tdi7J-1" vertex="1">
          <mxGeometry y="140" width="210" height="30" as="geometry" />
        </mxCell>
        <mxCell id="cowYSEw6Y3cWSE5Tdi7J-8" value="nearPressureMultiplier: 18" style="text;strokeColor=none;fillColor=none;spacingLeft=4;spacingRight=4;overflow=hidden;rotatable=0;points=[[0,0.5],[1,0.5]];portConstraint=eastwest;fontSize=12;whiteSpace=wrap;html=1;" parent="cowYSEw6Y3cWSE5Tdi7J-1" vertex="1">
          <mxGeometry y="170" width="210" height="30" as="geometry" />
        </mxCell>
        <mxCell id="cowYSEw6Y3cWSE5Tdi7J-9" value="viscosityStrength: 0.06" style="text;strokeColor=none;fillColor=none;spacingLeft=4;spacingRight=4;overflow=hidden;rotatable=0;points=[[0,0.5],[1,0.5]];portConstraint=eastwest;fontSize=12;whiteSpace=wrap;html=1;" parent="cowYSEw6Y3cWSE5Tdi7J-1" vertex="1">
          <mxGeometry y="200" width="210" height="30" as="geometry" />
        </mxCell>
        <mxCell id="cowYSEw6Y3cWSE5Tdi7J-10" value="interactionRadius: 2" style="text;strokeColor=none;fillColor=none;spacingLeft=4;spacingRight=4;overflow=hidden;rotatable=0;points=[[0,0.5],[1,0.5]];portConstraint=eastwest;fontSize=12;whiteSpace=wrap;html=1;" parent="cowYSEw6Y3cWSE5Tdi7J-1" vertex="1">
          <mxGeometry y="230" width="210" height="30" as="geometry" />
        </mxCell>
        <mxCell id="cowYSEw6Y3cWSE5Tdi7J-11" value="interactionStrength: 90" style="text;strokeColor=none;fillColor=none;spacingLeft=4;spacingRight=4;overflow=hidden;rotatable=0;points=[[0,0.5],[1,0.5]];portConstraint=eastwest;fontSize=12;whiteSpace=wrap;html=1;" parent="cowYSEw6Y3cWSE5Tdi7J-1" vertex="1">
          <mxGeometry y="260" width="210" height="30" as="geometry" />
        </mxCell>
        <mxCell id="g5756grNRRPCR5pmTg9r-1" value="particleCount: 4032" style="text;strokeColor=none;fillColor=none;spacingLeft=4;spacingRight=4;overflow=hidden;rotatable=0;points=[[0,0.5],[1,0.5]];portConstraint=eastwest;fontSize=12;whiteSpace=wrap;html=1;" parent="cowYSEw6Y3cWSE5Tdi7J-1" vertex="1">
          <mxGeometry y="290" width="210" height="30" as="geometry" />
        </mxCell>
        <mxCell id="cowYSEw6Y3cWSE5Tdi7J-13" value="Scenes/Test_B_(2D).unity" style="swimlane;fontStyle=0;childLayout=stackLayout;horizontal=1;startSize=20;horizontalStack=0;resizeParent=1;resizeParentMax=0;resizeLast=0;collapsible=1;marginBottom=0;align=center;fontSize=14;" parent="1" vertex="1">
          <mxGeometry x="840" y="660" width="210" height="320" as="geometry" />
        </mxCell>
        <mxCell id="cowYSEw6Y3cWSE5Tdi7J-14" value="gravity: -13" style="text;strokeColor=none;fillColor=none;spacingLeft=4;spacingRight=4;overflow=hidden;rotatable=0;points=[[0,0.5],[1,0.5]];portConstraint=eastwest;fontSize=12;whiteSpace=wrap;html=1;" parent="cowYSEw6Y3cWSE5Tdi7J-13" vertex="1">
          <mxGeometry y="20" width="210" height="30" as="geometry" />
        </mxCell>
        <mxCell id="cowYSEw6Y3cWSE5Tdi7J-15" value="collisionDamping: 0.5" style="text;strokeColor=none;fillColor=none;spacingLeft=4;spacingRight=4;overflow=hidden;rotatable=0;points=[[0,0.5],[1,0.5]];portConstraint=eastwest;fontSize=12;whiteSpace=wrap;html=1;" parent="cowYSEw6Y3cWSE5Tdi7J-13" vertex="1">
          <mxGeometry y="50" width="210" height="30" as="geometry" />
        </mxCell>
        <mxCell id="cowYSEw6Y3cWSE5Tdi7J-16" value="smoothingRadius: 0.2" style="text;strokeColor=none;fillColor=none;spacingLeft=4;spacingRight=4;overflow=hidden;rotatable=0;points=[[0,0.5],[1,0.5]];portConstraint=eastwest;fontSize=12;whiteSpace=wrap;html=1;" parent="cowYSEw6Y3cWSE5Tdi7J-13" vertex="1">
          <mxGeometry y="80" width="210" height="30" as="geometry" />
        </mxCell>
        <mxCell id="cowYSEw6Y3cWSE5Tdi7J-17" value="targetDensity: 234" style="text;strokeColor=none;fillColor=none;spacingLeft=4;spacingRight=4;overflow=hidden;rotatable=0;points=[[0,0.5],[1,0.5]];portConstraint=eastwest;fontSize=12;whiteSpace=wrap;html=1;" parent="cowYSEw6Y3cWSE5Tdi7J-13" vertex="1">
          <mxGeometry y="110" width="210" height="30" as="geometry" />
        </mxCell>
        <mxCell id="cowYSEw6Y3cWSE5Tdi7J-18" value="pressureMultiplier: 225" style="text;strokeColor=none;fillColor=none;spacingLeft=4;spacingRight=4;overflow=hidden;rotatable=0;points=[[0,0.5],[1,0.5]];portConstraint=eastwest;fontSize=12;whiteSpace=wrap;html=1;" parent="cowYSEw6Y3cWSE5Tdi7J-13" vertex="1">
          <mxGeometry y="140" width="210" height="30" as="geometry" />
        </mxCell>
        <mxCell id="cowYSEw6Y3cWSE5Tdi7J-19" value="nearPressureMultiplier: 18" style="text;strokeColor=none;fillColor=none;spacingLeft=4;spacingRight=4;overflow=hidden;rotatable=0;points=[[0,0.5],[1,0.5]];portConstraint=eastwest;fontSize=12;whiteSpace=wrap;html=1;" parent="cowYSEw6Y3cWSE5Tdi7J-13" vertex="1">
          <mxGeometry y="170" width="210" height="30" as="geometry" />
        </mxCell>
        <mxCell id="cowYSEw6Y3cWSE5Tdi7J-20" value="viscosityStrength: 0.03" style="text;strokeColor=none;fillColor=none;spacingLeft=4;spacingRight=4;overflow=hidden;rotatable=0;points=[[0,0.5],[1,0.5]];portConstraint=eastwest;fontSize=12;whiteSpace=wrap;html=1;" parent="cowYSEw6Y3cWSE5Tdi7J-13" vertex="1">
          <mxGeometry y="200" width="210" height="30" as="geometry" />
        </mxCell>
        <mxCell id="cowYSEw6Y3cWSE5Tdi7J-21" value="interactionRadius: 2.5" style="text;strokeColor=none;fillColor=none;spacingLeft=4;spacingRight=4;overflow=hidden;rotatable=0;points=[[0,0.5],[1,0.5]];portConstraint=eastwest;fontSize=12;whiteSpace=wrap;html=1;" parent="cowYSEw6Y3cWSE5Tdi7J-13" vertex="1">
          <mxGeometry y="230" width="210" height="30" as="geometry" />
        </mxCell>
        <mxCell id="cowYSEw6Y3cWSE5Tdi7J-22" value="interactionStrength: 75" style="text;strokeColor=none;fillColor=none;spacingLeft=4;spacingRight=4;overflow=hidden;rotatable=0;points=[[0,0.5],[1,0.5]];portConstraint=eastwest;fontSize=12;whiteSpace=wrap;html=1;" parent="cowYSEw6Y3cWSE5Tdi7J-13" vertex="1">
          <mxGeometry y="260" width="210" height="30" as="geometry" />
        </mxCell>
        <mxCell id="g5756grNRRPCR5pmTg9r-2" value="particleCount: 16000" style="text;strokeColor=none;fillColor=none;spacingLeft=4;spacingRight=4;overflow=hidden;rotatable=0;points=[[0,0.5],[1,0.5]];portConstraint=eastwest;fontSize=12;whiteSpace=wrap;html=1;" parent="cowYSEw6Y3cWSE5Tdi7J-13" vertex="1">
          <mxGeometry y="290" width="210" height="30" as="geometry" />
        </mxCell>
        <mxCell id="cowYSEw6Y3cWSE5Tdi7J-23" value="Scripts/Sim2D/Compute/FluidMaths2D.hlsl" style="swimlane;fontStyle=0;childLayout=stackLayout;horizontal=1;startSize=20;horizontalStack=0;resizeParent=1;resizeParentMax=0;resizeLast=0;collapsible=1;marginBottom=0;align=center;fontSize=14;" parent="1" vertex="1">
          <mxGeometry x="80" y="400" width="360" height="170" as="geometry" />
        </mxCell>
        <mxCell id="cowYSEw6Y3cWSE5Tdi7J-26" value="SpikyKernelPow2: (r-d)&lt;span style=&quot;font-size: 10px;&quot;&gt;&lt;sup&gt;2&lt;/sup&gt;&lt;/span&gt;*SpikyPow2ScalingFactor" style="text;strokeColor=none;fillColor=none;spacingLeft=4;spacingRight=4;overflow=hidden;rotatable=0;points=[[0,0.5],[1,0.5]];portConstraint=eastwest;fontSize=12;whiteSpace=wrap;html=1;" parent="cowYSEw6Y3cWSE5Tdi7J-23" vertex="1">
          <mxGeometry y="20" width="360" height="30" as="geometry" />
        </mxCell>
        <mxCell id="cowYSEw6Y3cWSE5Tdi7J-25" value="SpikyKernelPow3: (r-d)&lt;sup&gt;3&lt;/sup&gt;*SpikyPow3ScalingFactor" style="text;strokeColor=none;fillColor=none;spacingLeft=4;spacingRight=4;overflow=hidden;rotatable=0;points=[[0,0.5],[1,0.5]];portConstraint=eastwest;fontSize=12;whiteSpace=wrap;html=1;" parent="cowYSEw6Y3cWSE5Tdi7J-23" vertex="1">
          <mxGeometry y="50" width="360" height="30" as="geometry" />
        </mxCell>
        <mxCell id="cowYSEw6Y3cWSE5Tdi7J-28" value="DerivativeSpikyPow2: -(r-d)*SpikyPow2DerivativeScalingFactor" style="text;strokeColor=none;fillColor=none;spacingLeft=4;spacingRight=4;overflow=hidden;rotatable=0;points=[[0,0.5],[1,0.5]];portConstraint=eastwest;fontSize=12;whiteSpace=wrap;html=1;" parent="cowYSEw6Y3cWSE5Tdi7J-23" vertex="1">
          <mxGeometry y="80" width="360" height="30" as="geometry" />
        </mxCell>
        <mxCell id="cowYSEw6Y3cWSE5Tdi7J-27" value="DerivativeSpikyPow3: -(r-d)&lt;span style=&quot;font-size: 10px;&quot;&gt;&lt;sup&gt;2&lt;/sup&gt;&lt;/span&gt;*SpikyPow3DerivativeScalingFactor" style="text;strokeColor=none;fillColor=none;spacingLeft=4;spacingRight=4;overflow=hidden;rotatable=0;points=[[0,0.5],[1,0.5]];portConstraint=eastwest;fontSize=12;whiteSpace=wrap;html=1;" parent="cowYSEw6Y3cWSE5Tdi7J-23" vertex="1">
          <mxGeometry y="110" width="360" height="30" as="geometry" />
        </mxCell>
        <mxCell id="cowYSEw6Y3cWSE5Tdi7J-24" value="SmoothingKernelPoly6: (r&lt;sup&gt;2&lt;/sup&gt;-d&lt;sup&gt;2&lt;/sup&gt;)&lt;sup&gt;3&lt;/sup&gt;*Poly6ScalingFactor" style="text;strokeColor=none;fillColor=none;spacingLeft=4;spacingRight=4;overflow=hidden;rotatable=0;points=[[0,0.5],[1,0.5]];portConstraint=eastwest;fontSize=12;whiteSpace=wrap;html=1;" parent="cowYSEw6Y3cWSE5Tdi7J-23" vertex="1">
          <mxGeometry y="140" width="360" height="30" as="geometry" />
        </mxCell>
        <mxCell id="cowYSEw6Y3cWSE5Tdi7J-76" style="edgeStyle=orthogonalEdgeStyle;rounded=0;orthogonalLoop=1;jettySize=auto;html=1;exitX=0;exitY=0.25;exitDx=0;exitDy=0;entryX=1;entryY=0.5;entryDx=0;entryDy=0;fillColor=#d5e8d4;strokeColor=#82b366;" parent="1" source="cowYSEw6Y3cWSE5Tdi7J-33" target="cowYSEw6Y3cWSE5Tdi7J-25" edge="1">
          <mxGeometry relative="1" as="geometry" />
        </mxCell>
        <mxCell id="cowYSEw6Y3cWSE5Tdi7J-33" value="Scripts/Sim2D/Display/simulation2D.cs" style="swimlane;fontStyle=0;childLayout=stackLayout;horizontal=1;startSize=20;horizontalStack=0;resizeParent=1;resizeParentMax=0;resizeLast=0;collapsible=1;marginBottom=0;align=center;fontSize=14;" parent="1" vertex="1">
          <mxGeometry x="600" y="380" width="280" height="260" as="geometry" />
        </mxCell>
        <mxCell id="cowYSEw6Y3cWSE5Tdi7J-68" value="SpikyPow2ScalingFactor: 6/(pi*r&lt;sup&gt;4&lt;/sup&gt;)" style="text;strokeColor=none;fillColor=none;spacingLeft=4;spacingRight=4;overflow=hidden;rotatable=0;points=[[0,0.5],[1,0.5]];portConstraint=eastwest;fontSize=12;whiteSpace=wrap;html=1;" parent="cowYSEw6Y3cWSE5Tdi7J-33" vertex="1">
          <mxGeometry y="20" width="280" height="30" as="geometry" />
        </mxCell>
        <mxCell id="cowYSEw6Y3cWSE5Tdi7J-42" value="SpikyPow3ScalingFactor: 10/(pi*r&lt;sup&gt;5&lt;/sup&gt;)" style="text;strokeColor=none;fillColor=none;spacingLeft=4;spacingRight=4;overflow=hidden;rotatable=0;points=[[0,0.5],[1,0.5]];portConstraint=eastwest;fontSize=12;whiteSpace=wrap;html=1;" parent="cowYSEw6Y3cWSE5Tdi7J-33" vertex="1">
          <mxGeometry y="50" width="280" height="30" as="geometry" />
        </mxCell>
        <mxCell id="cowYSEw6Y3cWSE5Tdi7J-70" value="SpikyPow2DerivativeScalingFactor: : 12/(pi*r&lt;sup&gt;4&lt;/sup&gt;)" style="text;strokeColor=none;fillColor=none;spacingLeft=4;spacingRight=4;overflow=hidden;rotatable=0;points=[[0,0.5],[1,0.5]];portConstraint=eastwest;fontSize=12;whiteSpace=wrap;html=1;" parent="cowYSEw6Y3cWSE5Tdi7J-33" vertex="1">
          <mxGeometry y="80" width="280" height="30" as="geometry" />
        </mxCell>
        <mxCell id="cowYSEw6Y3cWSE5Tdi7J-69" value="SpikyPow3DerivativeScalingFactor: 30/(pi*r&lt;sup&gt;5&lt;/sup&gt;)" style="text;strokeColor=none;fillColor=none;spacingLeft=4;spacingRight=4;overflow=hidden;rotatable=0;points=[[0,0.5],[1,0.5]];portConstraint=eastwest;fontSize=12;whiteSpace=wrap;html=1;" parent="cowYSEw6Y3cWSE5Tdi7J-33" vertex="1">
          <mxGeometry y="110" width="280" height="30" as="geometry" />
        </mxCell>
        <mxCell id="cowYSEw6Y3cWSE5Tdi7J-41" value="Poly6ScalingFactor: 4/(pi*r&lt;sup&gt;8&lt;/sup&gt;)" style="text;strokeColor=none;fillColor=none;spacingLeft=4;spacingRight=4;overflow=hidden;rotatable=0;points=[[0,0.5],[1,0.5]];portConstraint=eastwest;fontSize=12;whiteSpace=wrap;html=1;" parent="cowYSEw6Y3cWSE5Tdi7J-33" vertex="1">
          <mxGeometry y="140" width="280" height="30" as="geometry" />
        </mxCell>
        <mxCell id="cowYSEw6Y3cWSE5Tdi7J-71" value="interactionInputPoint: mousePos" style="text;strokeColor=none;fillColor=none;spacingLeft=4;spacingRight=4;overflow=hidden;rotatable=0;points=[[0,0.5],[1,0.5]];portConstraint=eastwest;fontSize=12;whiteSpace=wrap;html=1;" parent="cowYSEw6Y3cWSE5Tdi7J-33" vertex="1">
          <mxGeometry y="170" width="280" height="30" as="geometry" />
        </mxCell>
        <mxCell id="cowYSEw6Y3cWSE5Tdi7J-36" value="deltaTime: 1 / 60f" style="text;strokeColor=none;fillColor=none;spacingLeft=4;spacingRight=4;overflow=hidden;rotatable=0;points=[[0,0.5],[1,0.5]];portConstraint=eastwest;fontSize=12;whiteSpace=wrap;html=1;" parent="cowYSEw6Y3cWSE5Tdi7J-33" vertex="1">
          <mxGeometry y="200" width="280" height="30" as="geometry" />
        </mxCell>
        <mxCell id="cowYSEw6Y3cWSE5Tdi7J-35" value="collisionDamping: 0.95" style="text;strokeColor=none;fillColor=none;spacingLeft=4;spacingRight=4;overflow=hidden;rotatable=0;points=[[0,0.5],[1,0.5]];portConstraint=eastwest;fontSize=12;whiteSpace=wrap;html=1;" parent="cowYSEw6Y3cWSE5Tdi7J-33" vertex="1">
          <mxGeometry y="230" width="280" height="30" as="geometry" />
        </mxCell>
        <mxCell id="cowYSEw6Y3cWSE5Tdi7J-43" value="Scripts/Sim2D/Compute/FluidSim2D.compute" style="swimlane;fontStyle=0;childLayout=stackLayout;horizontal=1;startSize=20;horizontalStack=0;resizeParent=1;resizeParentMax=0;resizeLast=0;collapsible=1;marginBottom=0;align=center;fontSize=14;" parent="1" vertex="1">
          <mxGeometry x="80" y="600" width="480" height="500" as="geometry" />
        </mxCell>
        <mxCell id="cowYSEw6Y3cWSE5Tdi7J-46" value="float&amp;nbsp;DensityKernel:SpikyKernelPow2" style="text;strokeColor=none;fillColor=none;spacingLeft=4;spacingRight=4;overflow=hidden;rotatable=0;points=[[0,0.5],[1,0.5]];portConstraint=eastwest;fontSize=12;whiteSpace=wrap;html=1;" parent="cowYSEw6Y3cWSE5Tdi7J-43" vertex="1">
          <mxGeometry y="20" width="480" height="30" as="geometry" />
        </mxCell>
        <mxCell id="cowYSEw6Y3cWSE5Tdi7J-45" value="float&amp;nbsp;NearDensityKernel: SpikyKernelPow3" style="text;strokeColor=none;fillColor=none;spacingLeft=4;spacingRight=4;overflow=hidden;rotatable=0;points=[[0,0.5],[1,0.5]];portConstraint=eastwest;fontSize=12;whiteSpace=wrap;html=1;" parent="cowYSEw6Y3cWSE5Tdi7J-43" vertex="1">
          <mxGeometry y="50" width="480" height="30" as="geometry" />
        </mxCell>
        <mxCell id="cowYSEw6Y3cWSE5Tdi7J-48" value="float DensityDerivative:&amp;nbsp;DerivativeSpikyPow2" style="text;strokeColor=none;fillColor=none;spacingLeft=4;spacingRight=4;overflow=hidden;rotatable=0;points=[[0,0.5],[1,0.5]];portConstraint=eastwest;fontSize=12;whiteSpace=wrap;html=1;" parent="cowYSEw6Y3cWSE5Tdi7J-43" vertex="1">
          <mxGeometry y="80" width="480" height="30" as="geometry" />
        </mxCell>
        <mxCell id="cowYSEw6Y3cWSE5Tdi7J-47" value="float&amp;nbsp;NearDensityDerivative: DerivativeSpikyPow3" style="text;strokeColor=none;fillColor=none;spacingLeft=4;spacingRight=4;overflow=hidden;rotatable=0;points=[[0,0.5],[1,0.5]];portConstraint=eastwest;fontSize=12;whiteSpace=wrap;html=1;" parent="cowYSEw6Y3cWSE5Tdi7J-43" vertex="1">
          <mxGeometry y="110" width="480" height="30" as="geometry" />
        </mxCell>
        <mxCell id="cowYSEw6Y3cWSE5Tdi7J-44" value="float&amp;nbsp;ViscosityKernel: SmoothingKernelPoly6" style="text;strokeColor=none;fillColor=none;spacingLeft=4;spacingRight=4;overflow=hidden;rotatable=0;points=[[0,0.5],[1,0.5]];portConstraint=eastwest;fontSize=12;whiteSpace=wrap;html=1;" parent="cowYSEw6Y3cWSE5Tdi7J-43" vertex="1">
          <mxGeometry y="140" width="480" height="30" as="geometry" />
        </mxCell>
        <mxCell id="cowYSEw6Y3cWSE5Tdi7J-49" value="float2 CalculateDensity(pos): return density, near_density" style="text;strokeColor=none;fillColor=none;spacingLeft=4;spacingRight=4;overflow=hidden;rotatable=0;points=[[0,0.5],[1,0.5]];portConstraint=eastwest;fontSize=12;whiteSpace=wrap;html=1;" parent="cowYSEw6Y3cWSE5Tdi7J-43" vertex="1">
          <mxGeometry y="170" width="480" height="30" as="geometry" />
        </mxCell>
        <mxCell id="cowYSEw6Y3cWSE5Tdi7J-50" value="float PressureFromDensity: (density - targetDensity) * pressureMultiplier" style="text;strokeColor=none;fillColor=none;spacingLeft=4;spacingRight=4;overflow=hidden;rotatable=0;points=[[0,0.5],[1,0.5]];portConstraint=eastwest;fontSize=12;whiteSpace=wrap;html=1;" parent="cowYSEw6Y3cWSE5Tdi7J-43" vertex="1">
          <mxGeometry y="200" width="480" height="30" as="geometry" />
        </mxCell>
        <mxCell id="cowYSEw6Y3cWSE5Tdi7J-51" value="float NearPressureFromDensity(nearDensity):&amp;nbsp;nearPressureMultiplier * nearDensity" style="text;strokeColor=none;fillColor=none;spacingLeft=4;spacingRight=4;overflow=hidden;rotatable=0;points=[[0,0.5],[1,0.5]];portConstraint=eastwest;fontSize=12;whiteSpace=wrap;html=1;" parent="cowYSEw6Y3cWSE5Tdi7J-43" vertex="1">
          <mxGeometry y="230" width="480" height="30" as="geometry" />
        </mxCell>
        <mxCell id="cowYSEw6Y3cWSE5Tdi7J-52" value="float ExternalForces(pos, velocity):&amp;nbsp;gravityAccel" style="text;strokeColor=none;fillColor=none;spacingLeft=4;spacingRight=4;overflow=hidden;rotatable=0;points=[[0,0.5],[1,0.5]];portConstraint=eastwest;fontSize=12;whiteSpace=wrap;html=1;" parent="cowYSEw6Y3cWSE5Tdi7J-43" vertex="1">
          <mxGeometry y="260" width="480" height="30" as="geometry" />
        </mxCell>
        <mxCell id="cowYSEw6Y3cWSE5Tdi7J-53" value="void HandleCollisions" style="text;strokeColor=none;fillColor=none;spacingLeft=4;spacingRight=4;overflow=hidden;rotatable=0;points=[[0,0.5],[1,0.5]];portConstraint=eastwest;fontSize=12;whiteSpace=wrap;html=1;" parent="cowYSEw6Y3cWSE5Tdi7J-43" vertex="1">
          <mxGeometry y="290" width="480" height="30" as="geometry" />
        </mxCell>
        <mxCell id="cowYSEw6Y3cWSE5Tdi7J-58" style="edgeStyle=orthogonalEdgeStyle;rounded=0;orthogonalLoop=1;jettySize=auto;html=1;" parent="cowYSEw6Y3cWSE5Tdi7J-43" source="cowYSEw6Y3cWSE5Tdi7J-54" target="cowYSEw6Y3cWSE5Tdi7J-52" edge="1">
          <mxGeometry relative="1" as="geometry">
            <Array as="points">
              <mxPoint x="500" y="335" />
              <mxPoint x="500" y="275" />
            </Array>
          </mxGeometry>
        </mxCell>
        <mxCell id="cowYSEw6Y3cWSE5Tdi7J-54" value="void ExternalForces: change velocities and predicted_positions" style="text;strokeColor=none;fillColor=none;spacingLeft=4;spacingRight=4;overflow=hidden;rotatable=0;points=[[0,0.5],[1,0.5]];portConstraint=eastwest;fontSize=12;whiteSpace=wrap;html=1;" parent="cowYSEw6Y3cWSE5Tdi7J-43" vertex="1">
          <mxGeometry y="320" width="480" height="30" as="geometry" />
        </mxCell>
        <mxCell id="cowYSEw6Y3cWSE5Tdi7J-55" value="void UpdateSpatialHash" style="text;strokeColor=none;fillColor=none;spacingLeft=4;spacingRight=4;overflow=hidden;rotatable=0;points=[[0,0.5],[1,0.5]];portConstraint=eastwest;fontSize=12;whiteSpace=wrap;html=1;" parent="cowYSEw6Y3cWSE5Tdi7J-43" vertex="1">
          <mxGeometry y="350" width="480" height="30" as="geometry" />
        </mxCell>
        <mxCell id="cowYSEw6Y3cWSE5Tdi7J-59" style="edgeStyle=orthogonalEdgeStyle;rounded=0;orthogonalLoop=1;jettySize=auto;html=1;exitX=0;exitY=0.5;exitDx=0;exitDy=0;entryX=0;entryY=0.5;entryDx=0;entryDy=0;" parent="cowYSEw6Y3cWSE5Tdi7J-43" source="cowYSEw6Y3cWSE5Tdi7J-56" target="cowYSEw6Y3cWSE5Tdi7J-49" edge="1">
          <mxGeometry relative="1" as="geometry" />
        </mxCell>
        <mxCell id="cowYSEw6Y3cWSE5Tdi7J-56" value="void CalculateDensities" style="text;strokeColor=none;fillColor=none;spacingLeft=4;spacingRight=4;overflow=hidden;rotatable=0;points=[[0,0.5],[1,0.5]];portConstraint=eastwest;fontSize=12;whiteSpace=wrap;html=1;" parent="cowYSEw6Y3cWSE5Tdi7J-43" vertex="1">
          <mxGeometry y="380" width="480" height="30" as="geometry" />
        </mxCell>
        <mxCell id="cowYSEw6Y3cWSE5Tdi7J-57" value="void CalculatePressureForce" style="text;strokeColor=none;fillColor=none;spacingLeft=4;spacingRight=4;overflow=hidden;rotatable=0;points=[[0,0.5],[1,0.5]];portConstraint=eastwest;fontSize=12;whiteSpace=wrap;html=1;" parent="cowYSEw6Y3cWSE5Tdi7J-43" vertex="1">
          <mxGeometry y="410" width="480" height="30" as="geometry" />
        </mxCell>
        <mxCell id="cowYSEw6Y3cWSE5Tdi7J-60" value="void CalculateViscosity" style="text;strokeColor=none;fillColor=none;spacingLeft=4;spacingRight=4;overflow=hidden;rotatable=0;points=[[0,0.5],[1,0.5]];portConstraint=eastwest;fontSize=12;whiteSpace=wrap;html=1;" parent="cowYSEw6Y3cWSE5Tdi7J-43" vertex="1">
          <mxGeometry y="440" width="480" height="30" as="geometry" />
        </mxCell>
        <mxCell id="cowYSEw6Y3cWSE5Tdi7J-61" value="void UpdatePositions" style="text;strokeColor=none;fillColor=none;spacingLeft=4;spacingRight=4;overflow=hidden;rotatable=0;points=[[0,0.5],[1,0.5]];portConstraint=eastwest;fontSize=12;whiteSpace=wrap;html=1;" parent="cowYSEw6Y3cWSE5Tdi7J-43" vertex="1">
          <mxGeometry y="470" width="480" height="30" as="geometry" />
        </mxCell>
        <mxCell id="cowYSEw6Y3cWSE5Tdi7J-62" value="Scripts/Sim2D/Compute/SpatialHash.hlsl" style="swimlane;fontStyle=0;childLayout=stackLayout;horizontal=1;startSize=20;horizontalStack=0;resizeParent=1;resizeParentMax=0;resizeLast=0;collapsible=1;marginBottom=0;align=center;fontSize=14;" parent="1" vertex="1">
          <mxGeometry x="600" y="990" width="320" height="110" as="geometry" />
        </mxCell>
        <mxCell id="cowYSEw6Y3cWSE5Tdi7J-63" value="GetCell2D(position, radius): (int2)floor(position/radius)" style="text;strokeColor=none;fillColor=none;spacingLeft=4;spacingRight=4;overflow=hidden;rotatable=0;points=[[0,0.5],[1,0.5]];portConstraint=eastwest;fontSize=12;whiteSpace=wrap;html=1;" parent="cowYSEw6Y3cWSE5Tdi7J-62" vertex="1">
          <mxGeometry y="20" width="320" height="30" as="geometry" />
        </mxCell>
        <mxCell id="cowYSEw6Y3cWSE5Tdi7J-64" value="HashCell2D(cell): cell.x*hash_K1 +&amp;nbsp; cell.y*hash_K2" style="text;strokeColor=none;fillColor=none;spacingLeft=4;spacingRight=4;overflow=hidden;rotatable=0;points=[[0,0.5],[1,0.5]];portConstraint=eastwest;fontSize=12;whiteSpace=wrap;html=1;" parent="cowYSEw6Y3cWSE5Tdi7J-62" vertex="1">
          <mxGeometry y="50" width="320" height="30" as="geometry" />
        </mxCell>
        <mxCell id="cowYSEw6Y3cWSE5Tdi7J-65" value="KeyFromHash: hash % table_size" style="text;strokeColor=none;fillColor=none;spacingLeft=4;spacingRight=4;overflow=hidden;rotatable=0;points=[[0,0.5],[1,0.5]];portConstraint=eastwest;fontSize=12;whiteSpace=wrap;html=1;" parent="cowYSEw6Y3cWSE5Tdi7J-62" vertex="1">
          <mxGeometry y="80" width="320" height="30" as="geometry" />
        </mxCell>
        <mxCell id="cowYSEw6Y3cWSE5Tdi7J-73" style="edgeStyle=orthogonalEdgeStyle;rounded=0;orthogonalLoop=1;jettySize=auto;html=1;exitX=1;exitY=0.5;exitDx=0;exitDy=0;entryX=0;entryY=0.5;entryDx=0;entryDy=0;" parent="1" source="cowYSEw6Y3cWSE5Tdi7J-52" target="cowYSEw6Y3cWSE5Tdi7J-71" edge="1">
          <mxGeometry relative="1" as="geometry" />
        </mxCell>
        <mxCell id="cowYSEw6Y3cWSE5Tdi7J-75" style="edgeStyle=orthogonalEdgeStyle;rounded=0;orthogonalLoop=1;jettySize=auto;html=1;exitX=0;exitY=0.5;exitDx=0;exitDy=0;fillColor=#fff2cc;strokeColor=#d6b656;" parent="1" source="cowYSEw6Y3cWSE5Tdi7J-41" target="cowYSEw6Y3cWSE5Tdi7J-24" edge="1">
          <mxGeometry relative="1" as="geometry" />
        </mxCell>
        <mxCell id="cowYSEw6Y3cWSE5Tdi7J-77" style="edgeStyle=orthogonalEdgeStyle;rounded=0;orthogonalLoop=1;jettySize=auto;html=1;exitX=0;exitY=0.5;exitDx=0;exitDy=0;entryX=1;entryY=0.5;entryDx=0;entryDy=0;fillColor=#f8cecc;strokeColor=#b85450;" parent="1" source="cowYSEw6Y3cWSE5Tdi7J-68" target="cowYSEw6Y3cWSE5Tdi7J-26" edge="1">
          <mxGeometry relative="1" as="geometry" />
        </mxCell>
        <mxCell id="cowYSEw6Y3cWSE5Tdi7J-80" style="edgeStyle=orthogonalEdgeStyle;rounded=0;orthogonalLoop=1;jettySize=auto;html=1;exitX=0;exitY=0.5;exitDx=0;exitDy=0;fillColor=#e1d5e7;strokeColor=#9673a6;" parent="1" source="cowYSEw6Y3cWSE5Tdi7J-69" target="cowYSEw6Y3cWSE5Tdi7J-27" edge="1">
          <mxGeometry relative="1" as="geometry" />
        </mxCell>
        <mxCell id="cowYSEw6Y3cWSE5Tdi7J-82" style="edgeStyle=orthogonalEdgeStyle;rounded=0;orthogonalLoop=1;jettySize=auto;html=1;fillColor=#dae8fc;strokeColor=#6c8ebf;" parent="1" source="cowYSEw6Y3cWSE5Tdi7J-70" target="cowYSEw6Y3cWSE5Tdi7J-28" edge="1">
          <mxGeometry relative="1" as="geometry" />
        </mxCell>
        <mxCell id="cowYSEw6Y3cWSE5Tdi7J-83" style="edgeStyle=orthogonalEdgeStyle;rounded=0;orthogonalLoop=1;jettySize=auto;html=1;exitX=0;exitY=0.5;exitDx=0;exitDy=0;entryX=0;entryY=0.5;entryDx=0;entryDy=0;strokeColor=#b85450;fillColor=#f8cecc;" parent="1" source="cowYSEw6Y3cWSE5Tdi7J-46" target="cowYSEw6Y3cWSE5Tdi7J-26" edge="1">
          <mxGeometry relative="1" as="geometry">
            <Array as="points">
              <mxPoint x="20" y="635" />
              <mxPoint x="20" y="435" />
            </Array>
          </mxGeometry>
        </mxCell>
        <mxCell id="cowYSEw6Y3cWSE5Tdi7J-84" style="edgeStyle=orthogonalEdgeStyle;rounded=0;orthogonalLoop=1;jettySize=auto;html=1;exitX=0;exitY=0.5;exitDx=0;exitDy=0;entryX=0;entryY=0.5;entryDx=0;entryDy=0;fillColor=#d5e8d4;strokeColor=#82b366;" parent="1" source="cowYSEw6Y3cWSE5Tdi7J-45" target="cowYSEw6Y3cWSE5Tdi7J-25" edge="1">
          <mxGeometry relative="1" as="geometry">
            <Array as="points">
              <mxPoint x="30" y="665" />
              <mxPoint x="30" y="465" />
            </Array>
          </mxGeometry>
        </mxCell>
        <mxCell id="cowYSEw6Y3cWSE5Tdi7J-85" style="edgeStyle=orthogonalEdgeStyle;rounded=0;orthogonalLoop=1;jettySize=auto;html=1;exitX=0;exitY=0.5;exitDx=0;exitDy=0;entryX=0;entryY=0.5;entryDx=0;entryDy=0;fillColor=#dae8fc;strokeColor=#6c8ebf;" parent="1" source="cowYSEw6Y3cWSE5Tdi7J-48" target="cowYSEw6Y3cWSE5Tdi7J-28" edge="1">
          <mxGeometry relative="1" as="geometry">
            <Array as="points">
              <mxPoint x="40" y="695" />
              <mxPoint x="40" y="495" />
            </Array>
          </mxGeometry>
        </mxCell>
        <mxCell id="cowYSEw6Y3cWSE5Tdi7J-86" style="edgeStyle=orthogonalEdgeStyle;rounded=0;orthogonalLoop=1;jettySize=auto;html=1;exitX=0;exitY=0.5;exitDx=0;exitDy=0;entryX=0;entryY=0.5;entryDx=0;entryDy=0;fillColor=#e1d5e7;strokeColor=#9673a6;" parent="1" source="cowYSEw6Y3cWSE5Tdi7J-47" target="cowYSEw6Y3cWSE5Tdi7J-27" edge="1">
          <mxGeometry relative="1" as="geometry">
            <Array as="points">
              <mxPoint x="50" y="725" />
              <mxPoint x="50" y="525" />
            </Array>
          </mxGeometry>
        </mxCell>
        <mxCell id="cowYSEw6Y3cWSE5Tdi7J-87" style="edgeStyle=orthogonalEdgeStyle;rounded=0;orthogonalLoop=1;jettySize=auto;html=1;exitX=0;exitY=0.5;exitDx=0;exitDy=0;entryX=0;entryY=0.5;entryDx=0;entryDy=0;fillColor=#fff2cc;strokeColor=#d6b656;" parent="1" source="cowYSEw6Y3cWSE5Tdi7J-44" target="cowYSEw6Y3cWSE5Tdi7J-24" edge="1">
          <mxGeometry relative="1" as="geometry" />
        </mxCell>
        <mxCell id="_BYFjhgskUyw7nxK_zSO-9" value="Math: MP Optimization" style="shape=process;whiteSpace=wrap;html=1;backgroundOutline=1;fillColor=#d5e8d4;strokeColor=#82b366;" parent="1" vertex="1">
          <mxGeometry x="1345" y="549" width="100" height="30" as="geometry" />
        </mxCell>
        <mxCell id="_BYFjhgskUyw7nxK_zSO-12" value="&lt;font style=&quot;font-size: 10px;&quot;&gt;unshaped MP&lt;/font&gt;" style="text;html=1;align=center;verticalAlign=middle;resizable=0;points=[];autosize=1;strokeColor=none;fillColor=none;" parent="1" vertex="1">
          <mxGeometry x="1315" y="820" width="90" height="30" as="geometry" />
        </mxCell>
        <mxCell id="_BYFjhgskUyw7nxK_zSO-14" value="&lt;font style=&quot;font-size: 10px;&quot;&gt;optimized MP&lt;/font&gt;" style="text;html=1;align=center;verticalAlign=middle;resizable=0;points=[];autosize=1;strokeColor=none;fillColor=none;" parent="1" vertex="1">
          <mxGeometry x="1445" y="540" width="80" height="30" as="geometry" />
        </mxCell>
        <mxCell id="_BYFjhgskUyw7nxK_zSO-22" value="Action" style="text;html=1;align=center;verticalAlign=middle;resizable=0;points=[];autosize=1;strokeColor=none;fillColor=none;fontSize=12;" parent="1" vertex="1">
          <mxGeometry x="1280" y="540" width="60" height="30" as="geometry" />
        </mxCell>
        <mxCell id="_BYFjhgskUyw7nxK_zSO-23" value="Observation: radius, filling height" style="text;html=1;align=center;verticalAlign=middle;resizable=0;points=[];autosize=1;strokeColor=none;fillColor=none;" parent="1" vertex="1">
          <mxGeometry x="1295" y="380" width="200" height="30" as="geometry" />
        </mxCell>
        <mxCell id="_BYFjhgskUyw7nxK_zSO-24" value="Reward" style="text;html=1;align=center;verticalAlign=middle;resizable=0;points=[];autosize=1;strokeColor=none;fillColor=none;" parent="1" vertex="1">
          <mxGeometry x="1365" y="440" width="60" height="30" as="geometry" />
        </mxCell>
        <mxCell id="_BYFjhgskUyw7nxK_zSO-27" value="Motion Profile (MP)" style="shape=table;startSize=20;container=1;collapsible=0;childLayout=tableLayout;fixedRows=1;rowLines=0;fontStyle=0;strokeColor=default;fontSize=10;" parent="1" vertex="1">
          <mxGeometry x="1700" y="540" width="104" height="80" as="geometry" />
        </mxCell>
        <mxCell id="_BYFjhgskUyw7nxK_zSO-28" value="" style="shape=tableRow;horizontal=0;startSize=0;swimlaneHead=0;swimlaneBody=0;top=0;left=0;bottom=0;right=0;collapsible=0;dropTarget=0;fillColor=none;points=[[0,0.5],[1,0.5]];portConstraint=eastwest;strokeColor=inherit;fontSize=10;" parent="_BYFjhgskUyw7nxK_zSO-27" vertex="1">
          <mxGeometry y="20" width="104" height="20" as="geometry" />
        </mxCell>
        <mxCell id="_BYFjhgskUyw7nxK_zSO-29" value="1" style="shape=partialRectangle;html=1;whiteSpace=wrap;connectable=0;fillColor=none;top=0;left=0;bottom=0;right=0;overflow=hidden;pointerEvents=1;strokeColor=inherit;fontSize=10;" parent="_BYFjhgskUyw7nxK_zSO-28" vertex="1">
          <mxGeometry width="24" height="20" as="geometry">
            <mxRectangle width="24" height="20" as="alternateBounds" />
          </mxGeometry>
        </mxCell>
        <mxCell id="_BYFjhgskUyw7nxK_zSO-30" value="Time" style="shape=partialRectangle;html=1;whiteSpace=wrap;connectable=0;fillColor=none;top=0;left=0;bottom=0;right=0;align=left;spacingLeft=6;overflow=hidden;strokeColor=inherit;fontSize=10;" parent="_BYFjhgskUyw7nxK_zSO-28" vertex="1">
          <mxGeometry x="24" width="80" height="20" as="geometry">
            <mxRectangle width="80" height="20" as="alternateBounds" />
          </mxGeometry>
        </mxCell>
        <mxCell id="_BYFjhgskUyw7nxK_zSO-31" value="" style="shape=tableRow;horizontal=0;startSize=0;swimlaneHead=0;swimlaneBody=0;top=0;left=0;bottom=0;right=0;collapsible=0;dropTarget=0;fillColor=none;points=[[0,0.5],[1,0.5]];portConstraint=eastwest;strokeColor=inherit;fontSize=10;" parent="_BYFjhgskUyw7nxK_zSO-27" vertex="1">
          <mxGeometry y="40" width="104" height="20" as="geometry" />
        </mxCell>
        <mxCell id="_BYFjhgskUyw7nxK_zSO-32" value="2" style="shape=partialRectangle;html=1;whiteSpace=wrap;connectable=0;fillColor=none;top=0;left=0;bottom=0;right=0;overflow=hidden;strokeColor=inherit;fontSize=10;" parent="_BYFjhgskUyw7nxK_zSO-31" vertex="1">
          <mxGeometry width="24" height="20" as="geometry">
            <mxRectangle width="24" height="20" as="alternateBounds" />
          </mxGeometry>
        </mxCell>
        <mxCell id="_BYFjhgskUyw7nxK_zSO-33" value="Velocity" style="shape=partialRectangle;html=1;whiteSpace=wrap;connectable=0;fillColor=none;top=0;left=0;bottom=0;right=0;align=left;spacingLeft=6;overflow=hidden;strokeColor=inherit;fontSize=10;" parent="_BYFjhgskUyw7nxK_zSO-31" vertex="1">
          <mxGeometry x="24" width="80" height="20" as="geometry">
            <mxRectangle width="80" height="20" as="alternateBounds" />
          </mxGeometry>
        </mxCell>
        <mxCell id="_BYFjhgskUyw7nxK_zSO-34" value="" style="shape=tableRow;horizontal=0;startSize=0;swimlaneHead=0;swimlaneBody=0;top=0;left=0;bottom=0;right=0;collapsible=0;dropTarget=0;fillColor=none;points=[[0,0.5],[1,0.5]];portConstraint=eastwest;strokeColor=inherit;fontSize=10;" parent="_BYFjhgskUyw7nxK_zSO-27" vertex="1">
          <mxGeometry y="60" width="104" height="20" as="geometry" />
        </mxCell>
        <mxCell id="_BYFjhgskUyw7nxK_zSO-35" value="3" style="shape=partialRectangle;html=1;whiteSpace=wrap;connectable=0;fillColor=none;top=0;left=0;bottom=0;right=0;overflow=hidden;strokeColor=inherit;fontSize=10;" parent="_BYFjhgskUyw7nxK_zSO-34" vertex="1">
          <mxGeometry width="24" height="20" as="geometry">
            <mxRectangle width="24" height="20" as="alternateBounds" />
          </mxGeometry>
        </mxCell>
        <mxCell id="_BYFjhgskUyw7nxK_zSO-36" value="Acceleration" style="shape=partialRectangle;html=1;whiteSpace=wrap;connectable=0;fillColor=none;top=0;left=0;bottom=0;right=0;align=left;spacingLeft=6;overflow=hidden;strokeColor=inherit;fontSize=10;" parent="_BYFjhgskUyw7nxK_zSO-34" vertex="1">
          <mxGeometry x="24" width="80" height="20" as="geometry">
            <mxRectangle width="80" height="20" as="alternateBounds" />
          </mxGeometry>
        </mxCell>
        <mxCell id="3Ne9I0h-u8BXhpTjWBJN-5" style="edgeStyle=orthogonalEdgeStyle;rounded=0;orthogonalLoop=1;jettySize=auto;html=1;entryX=0.75;entryY=0;entryDx=0;entryDy=0;exitX=0.145;exitY=0;exitDx=0;exitDy=4.35;exitPerimeter=0;" parent="1" source="_BYFjhgskUyw7nxK_zSO-4" target="3Ne9I0h-u8BXhpTjWBJN-2" edge="1">
          <mxGeometry relative="1" as="geometry">
            <Array as="points">
              <mxPoint x="1513" y="430" />
              <mxPoint x="1274" y="430" />
              <mxPoint x="1274" y="451" />
            </Array>
          </mxGeometry>
        </mxCell>
        <mxCell id="3Ne9I0h-u8BXhpTjWBJN-6" style="edgeStyle=orthogonalEdgeStyle;rounded=0;orthogonalLoop=1;jettySize=auto;html=1;exitX=0.855;exitY=0;exitDx=0;exitDy=4.35;exitPerimeter=0;entryX=0.25;entryY=0;entryDx=0;entryDy=0;" parent="1" source="_BYFjhgskUyw7nxK_zSO-4" target="3Ne9I0h-u8BXhpTjWBJN-2" edge="1">
          <mxGeometry relative="1" as="geometry">
            <Array as="points">
              <mxPoint x="1570" y="464" />
              <mxPoint x="1570" y="410" />
              <mxPoint x="1225" y="410" />
              <mxPoint x="1225" y="451" />
            </Array>
          </mxGeometry>
        </mxCell>
        <mxCell id="_BYFjhgskUyw7nxK_zSO-4" value="Environment: Container with Fluid" style="shape=cylinder3;whiteSpace=wrap;html=1;boundedLbl=1;backgroundOutline=1;size=15;fillColor=#dae8fc;strokeColor=#6c8ebf;" parent="1" vertex="1">
          <mxGeometry x="1500" y="460" width="90" height="80" as="geometry" />
        </mxCell>
        <mxCell id="GNAu9mWXhbDy6jVbB4oa-1" value="" style="endArrow=classic;html=1;rounded=0;" parent="1" edge="1">
          <mxGeometry width="50" height="50" relative="1" as="geometry">
            <mxPoint x="1135" y="1550" as="sourcePoint" />
            <mxPoint x="1535" y="1550" as="targetPoint" />
          </mxGeometry>
        </mxCell>
        <mxCell id="GNAu9mWXhbDy6jVbB4oa-2" value="" style="endArrow=classic;html=1;rounded=0;" parent="1" edge="1">
          <mxGeometry width="50" height="50" relative="1" as="geometry">
            <mxPoint x="1135" y="1610" as="sourcePoint" />
            <mxPoint x="1135" y="1470" as="targetPoint" />
          </mxGeometry>
        </mxCell>
        <mxCell id="GNAu9mWXhbDy6jVbB4oa-29" value="" style="group" parent="1" vertex="1" connectable="0">
          <mxGeometry x="1135" y="1510" width="160" height="80" as="geometry" />
        </mxCell>
        <mxCell id="GNAu9mWXhbDy6jVbB4oa-3" value="" style="endArrow=none;html=1;rounded=0;" parent="GNAu9mWXhbDy6jVbB4oa-29" edge="1">
          <mxGeometry width="50" height="50" relative="1" as="geometry">
            <mxPoint as="sourcePoint" />
            <mxPoint x="40" as="targetPoint" />
          </mxGeometry>
        </mxCell>
        <mxCell id="GNAu9mWXhbDy6jVbB4oa-4" value="" style="endArrow=none;html=1;rounded=0;" parent="GNAu9mWXhbDy6jVbB4oa-29" edge="1">
          <mxGeometry width="50" height="50" relative="1" as="geometry">
            <mxPoint x="40" as="sourcePoint" />
            <mxPoint x="40" y="80" as="targetPoint" />
          </mxGeometry>
        </mxCell>
        <mxCell id="GNAu9mWXhbDy6jVbB4oa-5" value="" style="endArrow=none;html=1;rounded=0;" parent="GNAu9mWXhbDy6jVbB4oa-29" edge="1">
          <mxGeometry width="50" height="50" relative="1" as="geometry">
            <mxPoint x="40" y="80" as="sourcePoint" />
            <mxPoint x="80" y="80" as="targetPoint" />
          </mxGeometry>
        </mxCell>
        <mxCell id="GNAu9mWXhbDy6jVbB4oa-6" value="" style="endArrow=none;html=1;rounded=0;" parent="GNAu9mWXhbDy6jVbB4oa-29" edge="1">
          <mxGeometry width="50" height="50" relative="1" as="geometry">
            <mxPoint x="80" y="20" as="sourcePoint" />
            <mxPoint x="80" y="80" as="targetPoint" />
          </mxGeometry>
        </mxCell>
        <mxCell id="GNAu9mWXhbDy6jVbB4oa-7" value="" style="endArrow=none;html=1;rounded=0;" parent="GNAu9mWXhbDy6jVbB4oa-29" edge="1">
          <mxGeometry width="50" height="50" relative="1" as="geometry">
            <mxPoint x="80" y="20" as="sourcePoint" />
            <mxPoint x="120" y="20" as="targetPoint" />
          </mxGeometry>
        </mxCell>
        <mxCell id="GNAu9mWXhbDy6jVbB4oa-8" value="" style="endArrow=none;html=1;rounded=0;" parent="GNAu9mWXhbDy6jVbB4oa-29" edge="1">
          <mxGeometry width="50" height="50" relative="1" as="geometry">
            <mxPoint x="120" y="20" as="sourcePoint" />
            <mxPoint x="120" y="60" as="targetPoint" />
          </mxGeometry>
        </mxCell>
        <mxCell id="GNAu9mWXhbDy6jVbB4oa-9" value="" style="endArrow=none;html=1;rounded=0;" parent="GNAu9mWXhbDy6jVbB4oa-29" edge="1">
          <mxGeometry width="50" height="50" relative="1" as="geometry">
            <mxPoint x="160" y="60" as="sourcePoint" />
            <mxPoint x="120" y="60" as="targetPoint" />
          </mxGeometry>
        </mxCell>
        <mxCell id="GNAu9mWXhbDy6jVbB4oa-10" value="" style="endArrow=none;html=1;rounded=0;" parent="GNAu9mWXhbDy6jVbB4oa-29" edge="1">
          <mxGeometry width="50" height="50" relative="1" as="geometry">
            <mxPoint x="160" y="40" as="sourcePoint" />
            <mxPoint x="160" y="60" as="targetPoint" />
          </mxGeometry>
        </mxCell>
        <mxCell id="GNAu9mWXhbDy6jVbB4oa-28" value="" style="endArrow=none;html=1;rounded=0;" parent="GNAu9mWXhbDy6jVbB4oa-29" edge="1">
          <mxGeometry width="50" height="50" relative="1" as="geometry">
            <mxPoint y="40" as="sourcePoint" />
            <mxPoint as="targetPoint" />
          </mxGeometry>
        </mxCell>
        <mxCell id="Xz4y95kfZ1F9NAdlPpzG-62" value="" style="endArrow=classic;html=1;rounded=0;startArrow=classic;startFill=1;" parent="GNAu9mWXhbDy6jVbB4oa-29" edge="1">
          <mxGeometry relative="1" as="geometry">
            <mxPoint x="20" y="40" as="sourcePoint" />
            <mxPoint x="20" as="targetPoint" />
          </mxGeometry>
        </mxCell>
        <mxCell id="Xz4y95kfZ1F9NAdlPpzG-63" value="&lt;font style=&quot;font-size: 8px;&quot;&gt;j&lt;sub&gt;1&lt;/sub&gt;&lt;/font&gt;" style="edgeLabel;resizable=0;html=1;;align=center;verticalAlign=middle;" parent="Xz4y95kfZ1F9NAdlPpzG-62" connectable="0" vertex="1">
          <mxGeometry relative="1" as="geometry" />
        </mxCell>
        <mxCell id="Xz4y95kfZ1F9NAdlPpzG-65" value="" style="endArrow=classic;html=1;rounded=0;startArrow=classic;startFill=1;" parent="GNAu9mWXhbDy6jVbB4oa-29" edge="1">
          <mxGeometry relative="1" as="geometry">
            <mxPoint x="100" y="40" as="sourcePoint" />
            <mxPoint x="100" y="20" as="targetPoint" />
          </mxGeometry>
        </mxCell>
        <mxCell id="Xz4y95kfZ1F9NAdlPpzG-66" value="&lt;font style=&quot;font-size: 8px;&quot;&gt;j&lt;sub&gt;2&lt;/sub&gt;&lt;/font&gt;" style="edgeLabel;resizable=0;html=1;;align=center;verticalAlign=middle;" parent="Xz4y95kfZ1F9NAdlPpzG-65" connectable="0" vertex="1">
          <mxGeometry relative="1" as="geometry">
            <mxPoint x="10" as="offset" />
          </mxGeometry>
        </mxCell>
        <mxCell id="Xz4y95kfZ1F9NAdlPpzG-207" value="" style="endArrow=classic;html=1;rounded=0;startArrow=classic;startFill=1;" parent="GNAu9mWXhbDy6jVbB4oa-29" edge="1">
          <mxGeometry relative="1" as="geometry">
            <mxPoint y="50" as="sourcePoint" />
            <mxPoint x="40" y="50" as="targetPoint" />
          </mxGeometry>
        </mxCell>
        <mxCell id="Xz4y95kfZ1F9NAdlPpzG-208" value="&lt;u&gt;Td&lt;/u&gt;" style="edgeLabel;resizable=0;html=1;;align=center;verticalAlign=middle;" parent="Xz4y95kfZ1F9NAdlPpzG-207" connectable="0" vertex="1">
          <mxGeometry relative="1" as="geometry">
            <mxPoint y="-3" as="offset" />
          </mxGeometry>
        </mxCell>
        <mxCell id="GNAu9mWXhbDy6jVbB4oa-30" value="" style="group;flipV=1;" parent="1" vertex="1" connectable="0">
          <mxGeometry x="1335" y="1510" width="160" height="80" as="geometry" />
        </mxCell>
        <mxCell id="GNAu9mWXhbDy6jVbB4oa-31" value="" style="endArrow=none;html=1;rounded=0;" parent="GNAu9mWXhbDy6jVbB4oa-30" edge="1">
          <mxGeometry width="50" height="50" relative="1" as="geometry">
            <mxPoint y="80" as="sourcePoint" />
            <mxPoint x="40" y="80" as="targetPoint" />
          </mxGeometry>
        </mxCell>
        <mxCell id="GNAu9mWXhbDy6jVbB4oa-32" value="" style="endArrow=none;html=1;rounded=0;" parent="GNAu9mWXhbDy6jVbB4oa-30" edge="1">
          <mxGeometry width="50" height="50" relative="1" as="geometry">
            <mxPoint x="40" y="80" as="sourcePoint" />
            <mxPoint x="40" as="targetPoint" />
          </mxGeometry>
        </mxCell>
        <mxCell id="GNAu9mWXhbDy6jVbB4oa-33" value="" style="endArrow=none;html=1;rounded=0;" parent="GNAu9mWXhbDy6jVbB4oa-30" edge="1">
          <mxGeometry width="50" height="50" relative="1" as="geometry">
            <mxPoint x="40" as="sourcePoint" />
            <mxPoint x="80" as="targetPoint" />
          </mxGeometry>
        </mxCell>
        <mxCell id="GNAu9mWXhbDy6jVbB4oa-34" value="" style="endArrow=none;html=1;rounded=0;" parent="GNAu9mWXhbDy6jVbB4oa-30" edge="1">
          <mxGeometry width="50" height="50" relative="1" as="geometry">
            <mxPoint x="80" y="60" as="sourcePoint" />
            <mxPoint x="80" as="targetPoint" />
          </mxGeometry>
        </mxCell>
        <mxCell id="GNAu9mWXhbDy6jVbB4oa-35" value="" style="endArrow=none;html=1;rounded=0;" parent="GNAu9mWXhbDy6jVbB4oa-30" edge="1">
          <mxGeometry width="50" height="50" relative="1" as="geometry">
            <mxPoint x="80" y="60" as="sourcePoint" />
            <mxPoint x="120" y="60" as="targetPoint" />
          </mxGeometry>
        </mxCell>
        <mxCell id="GNAu9mWXhbDy6jVbB4oa-36" value="" style="endArrow=none;html=1;rounded=0;" parent="GNAu9mWXhbDy6jVbB4oa-30" edge="1">
          <mxGeometry width="50" height="50" relative="1" as="geometry">
            <mxPoint x="120" y="60" as="sourcePoint" />
            <mxPoint x="120" y="20" as="targetPoint" />
          </mxGeometry>
        </mxCell>
        <mxCell id="GNAu9mWXhbDy6jVbB4oa-37" value="" style="endArrow=none;html=1;rounded=0;" parent="GNAu9mWXhbDy6jVbB4oa-30" edge="1">
          <mxGeometry width="50" height="50" relative="1" as="geometry">
            <mxPoint x="160" y="20" as="sourcePoint" />
            <mxPoint x="120" y="20" as="targetPoint" />
          </mxGeometry>
        </mxCell>
        <mxCell id="GNAu9mWXhbDy6jVbB4oa-38" value="" style="endArrow=none;html=1;rounded=0;" parent="GNAu9mWXhbDy6jVbB4oa-30" edge="1">
          <mxGeometry width="50" height="50" relative="1" as="geometry">
            <mxPoint x="160" y="40" as="sourcePoint" />
            <mxPoint x="160" y="20" as="targetPoint" />
          </mxGeometry>
        </mxCell>
        <mxCell id="GNAu9mWXhbDy6jVbB4oa-39" value="" style="endArrow=none;html=1;rounded=0;" parent="GNAu9mWXhbDy6jVbB4oa-30" edge="1">
          <mxGeometry width="50" height="50" relative="1" as="geometry">
            <mxPoint y="40" as="sourcePoint" />
            <mxPoint y="80" as="targetPoint" />
          </mxGeometry>
        </mxCell>
        <mxCell id="GNAu9mWXhbDy6jVbB4oa-40" value="" style="endArrow=classic;html=1;rounded=0;" parent="1" edge="1">
          <mxGeometry width="50" height="50" relative="1" as="geometry">
            <mxPoint x="1135" y="1420" as="sourcePoint" />
            <mxPoint x="1535" y="1420" as="targetPoint" />
          </mxGeometry>
        </mxCell>
        <mxCell id="GNAu9mWXhbDy6jVbB4oa-41" value="" style="endArrow=classic;html=1;rounded=0;" parent="1" edge="1">
          <mxGeometry width="50" height="50" relative="1" as="geometry">
            <mxPoint x="1135" y="1460" as="sourcePoint" />
            <mxPoint x="1135" y="1360" as="targetPoint" />
          </mxGeometry>
        </mxCell>
        <mxCell id="GNAu9mWXhbDy6jVbB4oa-48" value="" style="group" parent="1" vertex="1" connectable="0">
          <mxGeometry x="1135" y="1380" width="160" height="40" as="geometry" />
        </mxCell>
        <mxCell id="GNAu9mWXhbDy6jVbB4oa-42" value="" style="endArrow=none;html=1;rounded=0;" parent="GNAu9mWXhbDy6jVbB4oa-48" edge="1">
          <mxGeometry width="50" height="50" relative="1" as="geometry">
            <mxPoint y="40" as="sourcePoint" />
            <mxPoint x="40" as="targetPoint" />
          </mxGeometry>
        </mxCell>
        <mxCell id="GNAu9mWXhbDy6jVbB4oa-45" value="" style="endArrow=none;html=1;rounded=0;" parent="GNAu9mWXhbDy6jVbB4oa-48" edge="1">
          <mxGeometry width="50" height="50" relative="1" as="geometry">
            <mxPoint x="80" y="40" as="sourcePoint" />
            <mxPoint x="40" as="targetPoint" />
          </mxGeometry>
        </mxCell>
        <mxCell id="GNAu9mWXhbDy6jVbB4oa-46" value="" style="endArrow=none;html=1;rounded=0;" parent="GNAu9mWXhbDy6jVbB4oa-48" edge="1">
          <mxGeometry width="50" height="50" relative="1" as="geometry">
            <mxPoint x="80" y="40" as="sourcePoint" />
            <mxPoint x="120" y="20" as="targetPoint" />
          </mxGeometry>
        </mxCell>
        <mxCell id="GNAu9mWXhbDy6jVbB4oa-47" value="" style="endArrow=none;html=1;rounded=0;" parent="GNAu9mWXhbDy6jVbB4oa-48" edge="1">
          <mxGeometry width="50" height="50" relative="1" as="geometry">
            <mxPoint x="160" y="40" as="sourcePoint" />
            <mxPoint x="120" y="20" as="targetPoint" />
          </mxGeometry>
        </mxCell>
        <mxCell id="Xz4y95kfZ1F9NAdlPpzG-58" value="" style="endArrow=classic;html=1;rounded=0;startArrow=classic;startFill=1;" parent="GNAu9mWXhbDy6jVbB4oa-48" edge="1">
          <mxGeometry relative="1" as="geometry">
            <mxPoint x="40" y="40" as="sourcePoint" />
            <mxPoint x="40" as="targetPoint" />
          </mxGeometry>
        </mxCell>
        <mxCell id="Xz4y95kfZ1F9NAdlPpzG-59" value="&lt;font style=&quot;font-size: 8px;&quot;&gt;a&lt;sub&gt;1&lt;/sub&gt;&lt;/font&gt;" style="edgeLabel;resizable=0;html=1;;align=center;verticalAlign=middle;" parent="Xz4y95kfZ1F9NAdlPpzG-58" connectable="0" vertex="1">
          <mxGeometry relative="1" as="geometry" />
        </mxCell>
        <mxCell id="Xz4y95kfZ1F9NAdlPpzG-60" value="" style="endArrow=classic;html=1;rounded=0;startArrow=classic;startFill=1;" parent="GNAu9mWXhbDy6jVbB4oa-48" edge="1">
          <mxGeometry relative="1" as="geometry">
            <mxPoint x="120" y="40" as="sourcePoint" />
            <mxPoint x="120" y="20" as="targetPoint" />
          </mxGeometry>
        </mxCell>
        <mxCell id="Xz4y95kfZ1F9NAdlPpzG-61" value="&lt;font style=&quot;font-size: 8px;&quot;&gt;a&lt;sub&gt;2&lt;/sub&gt;&lt;/font&gt;" style="edgeLabel;resizable=0;html=1;;align=center;verticalAlign=middle;labelBackgroundColor=none;" parent="Xz4y95kfZ1F9NAdlPpzG-60" connectable="0" vertex="1">
          <mxGeometry relative="1" as="geometry">
            <mxPoint x="8" y="2" as="offset" />
          </mxGeometry>
        </mxCell>
        <mxCell id="GNAu9mWXhbDy6jVbB4oa-49" value="" style="group;flipV=1;" parent="1" vertex="1" connectable="0">
          <mxGeometry x="1335" y="1420" width="160" height="40" as="geometry" />
        </mxCell>
        <mxCell id="GNAu9mWXhbDy6jVbB4oa-50" value="" style="endArrow=none;html=1;rounded=0;" parent="GNAu9mWXhbDy6jVbB4oa-49" edge="1">
          <mxGeometry width="50" height="50" relative="1" as="geometry">
            <mxPoint as="sourcePoint" />
            <mxPoint x="40" y="40" as="targetPoint" />
          </mxGeometry>
        </mxCell>
        <mxCell id="GNAu9mWXhbDy6jVbB4oa-51" value="" style="endArrow=none;html=1;rounded=0;" parent="GNAu9mWXhbDy6jVbB4oa-49" edge="1">
          <mxGeometry width="50" height="50" relative="1" as="geometry">
            <mxPoint x="80" as="sourcePoint" />
            <mxPoint x="40" y="40" as="targetPoint" />
          </mxGeometry>
        </mxCell>
        <mxCell id="GNAu9mWXhbDy6jVbB4oa-52" value="" style="endArrow=none;html=1;rounded=0;" parent="GNAu9mWXhbDy6jVbB4oa-49" edge="1">
          <mxGeometry width="50" height="50" relative="1" as="geometry">
            <mxPoint x="80" as="sourcePoint" />
            <mxPoint x="120" y="20" as="targetPoint" />
          </mxGeometry>
        </mxCell>
        <mxCell id="GNAu9mWXhbDy6jVbB4oa-53" value="" style="endArrow=none;html=1;rounded=0;" parent="GNAu9mWXhbDy6jVbB4oa-49" edge="1">
          <mxGeometry width="50" height="50" relative="1" as="geometry">
            <mxPoint x="160" as="sourcePoint" />
            <mxPoint x="120" y="20" as="targetPoint" />
          </mxGeometry>
        </mxCell>
        <mxCell id="Xz4y95kfZ1F9NAdlPpzG-1" value="" style="endArrow=classic;html=1;rounded=0;" parent="1" edge="1">
          <mxGeometry width="50" height="50" relative="1" as="geometry">
            <mxPoint x="1135" y="1320" as="sourcePoint" />
            <mxPoint x="1535" y="1320" as="targetPoint" />
          </mxGeometry>
        </mxCell>
        <mxCell id="Xz4y95kfZ1F9NAdlPpzG-2" value="" style="endArrow=classic;html=1;rounded=0;" parent="1" edge="1">
          <mxGeometry width="50" height="50" relative="1" as="geometry">
            <mxPoint x="1135" y="1355" as="sourcePoint" />
            <mxPoint x="1135" y="1245" as="targetPoint" />
          </mxGeometry>
        </mxCell>
        <mxCell id="Xz4y95kfZ1F9NAdlPpzG-3" value="jerk" style="text;html=1;align=center;verticalAlign=middle;resizable=0;points=[];autosize=1;strokeColor=none;fillColor=none;" parent="1" vertex="1">
          <mxGeometry x="1100" y="1460" width="40" height="30" as="geometry" />
        </mxCell>
        <mxCell id="Xz4y95kfZ1F9NAdlPpzG-4" value="acc" style="text;html=1;align=center;verticalAlign=middle;resizable=0;points=[];autosize=1;strokeColor=none;fillColor=none;" parent="1" vertex="1">
          <mxGeometry x="1100" y="1350" width="40" height="30" as="geometry" />
        </mxCell>
        <mxCell id="Xz4y95kfZ1F9NAdlPpzG-5" value="vel" style="text;html=1;align=center;verticalAlign=middle;resizable=0;points=[];autosize=1;strokeColor=none;fillColor=none;" parent="1" vertex="1">
          <mxGeometry x="1101" y="1231" width="40" height="30" as="geometry" />
        </mxCell>
        <mxCell id="Xz4y95kfZ1F9NAdlPpzG-13" value="" style="curved=1;endArrow=none;html=1;rounded=0;endFill=0;" parent="1" edge="1">
          <mxGeometry width="50" height="50" relative="1" as="geometry">
            <mxPoint x="1215" y="1280" as="sourcePoint" />
            <mxPoint x="1295" y="1260" as="targetPoint" />
            <Array as="points">
              <mxPoint x="1235" y="1280" />
              <mxPoint x="1255" y="1270" />
              <mxPoint x="1275" y="1260" />
            </Array>
          </mxGeometry>
        </mxCell>
        <mxCell id="Xz4y95kfZ1F9NAdlPpzG-14" value="" style="endArrow=none;html=1;rounded=0;" parent="1" edge="1">
          <mxGeometry width="50" height="50" relative="1" as="geometry">
            <mxPoint x="1295" y="1260" as="sourcePoint" />
            <mxPoint x="1335" y="1260" as="targetPoint" />
          </mxGeometry>
        </mxCell>
        <mxCell id="Xz4y95kfZ1F9NAdlPpzG-17" value="" style="endArrow=none;dashed=1;html=1;strokeWidth=1;rounded=0;" parent="1" edge="1">
          <mxGeometry width="50" height="50" relative="1" as="geometry">
            <mxPoint x="1175" y="1610" as="sourcePoint" />
            <mxPoint x="1175" y="1240" as="targetPoint" />
          </mxGeometry>
        </mxCell>
        <mxCell id="Xz4y95kfZ1F9NAdlPpzG-18" value="" style="endArrow=none;dashed=1;html=1;strokeWidth=1;rounded=0;" parent="1" edge="1">
          <mxGeometry width="50" height="50" relative="1" as="geometry">
            <mxPoint x="1215" y="1610" as="sourcePoint" />
            <mxPoint x="1215" y="1240" as="targetPoint" />
          </mxGeometry>
        </mxCell>
        <mxCell id="Xz4y95kfZ1F9NAdlPpzG-19" value="" style="endArrow=none;dashed=1;html=1;strokeWidth=1;rounded=0;" parent="1" edge="1">
          <mxGeometry width="50" height="50" relative="1" as="geometry">
            <mxPoint x="1255" y="1610" as="sourcePoint" />
            <mxPoint x="1255" y="1240" as="targetPoint" />
          </mxGeometry>
        </mxCell>
        <mxCell id="Xz4y95kfZ1F9NAdlPpzG-20" value="" style="endArrow=none;dashed=1;html=1;strokeWidth=1;rounded=0;" parent="1" edge="1">
          <mxGeometry width="50" height="50" relative="1" as="geometry">
            <mxPoint x="1295" y="1610" as="sourcePoint" />
            <mxPoint x="1295" y="1240" as="targetPoint" />
          </mxGeometry>
        </mxCell>
        <mxCell id="Xz4y95kfZ1F9NAdlPpzG-21" value="" style="endArrow=none;dashed=1;html=1;strokeWidth=1;rounded=0;" parent="1" edge="1">
          <mxGeometry width="50" height="50" relative="1" as="geometry">
            <mxPoint x="1335" y="1610" as="sourcePoint" />
            <mxPoint x="1335" y="1240" as="targetPoint" />
          </mxGeometry>
        </mxCell>
        <mxCell id="Xz4y95kfZ1F9NAdlPpzG-22" value="" style="endArrow=none;dashed=1;html=1;strokeWidth=1;rounded=0;" parent="1" edge="1">
          <mxGeometry width="50" height="50" relative="1" as="geometry">
            <mxPoint x="1375" y="1610" as="sourcePoint" />
            <mxPoint x="1375" y="1240" as="targetPoint" />
          </mxGeometry>
        </mxCell>
        <mxCell id="Xz4y95kfZ1F9NAdlPpzG-23" value="" style="endArrow=none;dashed=1;html=1;strokeWidth=1;rounded=0;" parent="1" edge="1">
          <mxGeometry width="50" height="50" relative="1" as="geometry">
            <mxPoint x="1415" y="1610" as="sourcePoint" />
            <mxPoint x="1415" y="1240" as="targetPoint" />
          </mxGeometry>
        </mxCell>
        <mxCell id="Xz4y95kfZ1F9NAdlPpzG-24" value="" style="endArrow=none;dashed=1;html=1;strokeWidth=1;rounded=0;" parent="1" edge="1">
          <mxGeometry width="50" height="50" relative="1" as="geometry">
            <mxPoint x="1455" y="1610" as="sourcePoint" />
            <mxPoint x="1455" y="1240" as="targetPoint" />
          </mxGeometry>
        </mxCell>
        <mxCell id="Xz4y95kfZ1F9NAdlPpzG-25" value="" style="endArrow=none;dashed=1;html=1;strokeWidth=1;rounded=0;" parent="1" edge="1">
          <mxGeometry width="50" height="50" relative="1" as="geometry">
            <mxPoint x="1495" y="1610" as="sourcePoint" />
            <mxPoint x="1494" y="1240" as="targetPoint" />
          </mxGeometry>
        </mxCell>
        <mxCell id="Xz4y95kfZ1F9NAdlPpzG-26" value="" style="endArrow=none;dashed=1;html=1;strokeWidth=1;rounded=0;" parent="1" edge="1">
          <mxGeometry width="50" height="50" relative="1" as="geometry">
            <mxPoint x="1295" y="1280" as="sourcePoint" />
            <mxPoint x="1215" y="1280" as="targetPoint" />
          </mxGeometry>
        </mxCell>
        <mxCell id="Xz4y95kfZ1F9NAdlPpzG-27" value="" style="endArrow=classic;html=1;rounded=0;startArrow=classic;startFill=1;" parent="1" edge="1">
          <mxGeometry relative="1" as="geometry">
            <mxPoint x="1135" y="1439.8" as="sourcePoint" />
            <mxPoint x="1215" y="1440" as="targetPoint" />
          </mxGeometry>
        </mxCell>
        <mxCell id="Xz4y95kfZ1F9NAdlPpzG-28" value="&lt;u&gt;Td&lt;/u&gt;" style="edgeLabel;resizable=0;html=1;;align=center;verticalAlign=middle;" parent="Xz4y95kfZ1F9NAdlPpzG-27" connectable="0" vertex="1">
          <mxGeometry relative="1" as="geometry">
            <mxPoint y="-8" as="offset" />
          </mxGeometry>
        </mxCell>
        <mxCell id="Xz4y95kfZ1F9NAdlPpzG-29" value="2" style="text;html=1;align=center;verticalAlign=middle;resizable=0;points=[];autosize=1;strokeColor=none;fillColor=none;" parent="1" vertex="1">
          <mxGeometry x="1160" y="1430" width="30" height="30" as="geometry" />
        </mxCell>
        <mxCell id="Xz4y95kfZ1F9NAdlPpzG-34" value="" style="endArrow=classic;html=1;rounded=0;startArrow=classic;startFill=1;" parent="1" edge="1">
          <mxGeometry relative="1" as="geometry">
            <mxPoint x="1235" y="1320" as="sourcePoint" />
            <mxPoint x="1235" y="1280" as="targetPoint" />
          </mxGeometry>
        </mxCell>
        <mxCell id="Xz4y95kfZ1F9NAdlPpzG-35" value="&lt;font style=&quot;font-size: 8px;&quot;&gt;v&lt;sub&gt;1&lt;/sub&gt;&lt;/font&gt;" style="edgeLabel;resizable=0;html=1;;align=center;verticalAlign=middle;" parent="Xz4y95kfZ1F9NAdlPpzG-34" connectable="0" vertex="1">
          <mxGeometry relative="1" as="geometry" />
        </mxCell>
        <mxCell id="Xz4y95kfZ1F9NAdlPpzG-43" value="" style="endArrow=classic;html=1;rounded=0;startArrow=classic;startFill=1;" parent="1" edge="1">
          <mxGeometry relative="1" as="geometry">
            <mxPoint x="1285" y="1280" as="sourcePoint" />
            <mxPoint x="1285" y="1260" as="targetPoint" />
          </mxGeometry>
        </mxCell>
        <mxCell id="Xz4y95kfZ1F9NAdlPpzG-44" value="&lt;font style=&quot;font-size: 9px;&quot;&gt;v&lt;sub&gt;2&lt;/sub&gt;&lt;/font&gt;" style="edgeLabel;resizable=0;html=1;;align=center;verticalAlign=middle;labelBackgroundColor=none;" parent="Xz4y95kfZ1F9NAdlPpzG-43" connectable="0" vertex="1">
          <mxGeometry relative="1" as="geometry">
            <mxPoint x="-9" as="offset" />
          </mxGeometry>
        </mxCell>
        <mxCell id="Xz4y95kfZ1F9NAdlPpzG-47" value="" style="endArrow=classic;html=1;rounded=0;startArrow=classic;startFill=1;" parent="1" edge="1">
          <mxGeometry relative="1" as="geometry">
            <mxPoint x="1295" y="1440" as="sourcePoint" />
            <mxPoint x="1335" y="1440" as="targetPoint" />
          </mxGeometry>
        </mxCell>
        <mxCell id="Xz4y95kfZ1F9NAdlPpzG-48" value="Tc" style="edgeLabel;resizable=0;html=1;;align=center;verticalAlign=middle;" parent="Xz4y95kfZ1F9NAdlPpzG-47" connectable="0" vertex="1">
          <mxGeometry relative="1" as="geometry" />
        </mxCell>
        <mxCell id="Xz4y95kfZ1F9NAdlPpzG-51" value="" style="endArrow=classic;html=1;rounded=0;startArrow=classic;startFill=1;" parent="1" edge="1">
          <mxGeometry relative="1" as="geometry">
            <mxPoint x="1315" y="1321" as="sourcePoint" />
            <mxPoint x="1315" y="1261" as="targetPoint" />
          </mxGeometry>
        </mxCell>
        <mxCell id="Xz4y95kfZ1F9NAdlPpzG-52" value="v&lt;sub&gt;max&lt;/sub&gt;" style="edgeLabel;resizable=0;html=1;;align=center;verticalAlign=middle;" parent="Xz4y95kfZ1F9NAdlPpzG-51" connectable="0" vertex="1">
          <mxGeometry relative="1" as="geometry" />
        </mxCell>
        <mxCell id="Xz4y95kfZ1F9NAdlPpzG-54" value="" style="curved=1;endArrow=none;html=1;rounded=0;endFill=0;" parent="1" edge="1">
          <mxGeometry width="50" height="50" relative="1" as="geometry">
            <mxPoint x="1135" y="1320" as="sourcePoint" />
            <mxPoint x="1215" y="1280" as="targetPoint" />
            <Array as="points">
              <mxPoint x="1155" y="1320" />
              <mxPoint x="1175" y="1300" />
              <mxPoint x="1195" y="1280" />
            </Array>
          </mxGeometry>
        </mxCell>
        <mxCell id="Xz4y95kfZ1F9NAdlPpzG-55" value="" style="curved=1;endArrow=none;html=1;rounded=0;endFill=0;" parent="1" edge="1">
          <mxGeometry width="50" height="50" relative="1" as="geometry">
            <mxPoint x="1415" y="1300" as="sourcePoint" />
            <mxPoint x="1335" y="1260" as="targetPoint" />
            <Array as="points">
              <mxPoint x="1395" y="1300" />
              <mxPoint x="1375" y="1280" />
              <mxPoint x="1355" y="1260" />
            </Array>
          </mxGeometry>
        </mxCell>
        <mxCell id="Xz4y95kfZ1F9NAdlPpzG-57" value="" style="curved=1;endArrow=none;html=1;rounded=0;endFill=0;" parent="1" edge="1">
          <mxGeometry width="50" height="50" relative="1" as="geometry">
            <mxPoint x="1495" y="1320" as="sourcePoint" />
            <mxPoint x="1415" y="1300" as="targetPoint" />
            <Array as="points">
              <mxPoint x="1475" y="1320" />
              <mxPoint x="1455" y="1310" />
              <mxPoint x="1435" y="1300" />
            </Array>
          </mxGeometry>
        </mxCell>
        <mxCell id="Xz4y95kfZ1F9NAdlPpzG-67" value="" style="endArrow=classic;html=1;rounded=0;" parent="1" edge="1">
          <mxGeometry width="50" height="50" relative="1" as="geometry">
            <mxPoint x="1735" y="1550" as="sourcePoint" />
            <mxPoint x="2275" y="1550" as="targetPoint" />
          </mxGeometry>
        </mxCell>
        <mxCell id="Xz4y95kfZ1F9NAdlPpzG-68" value="" style="endArrow=classic;html=1;rounded=0;" parent="1" edge="1">
          <mxGeometry width="50" height="50" relative="1" as="geometry">
            <mxPoint x="1735" y="1610" as="sourcePoint" />
            <mxPoint x="1735" y="1470" as="targetPoint" />
          </mxGeometry>
        </mxCell>
        <mxCell id="Xz4y95kfZ1F9NAdlPpzG-93" value="" style="endArrow=classic;html=1;rounded=0;" parent="1" edge="1">
          <mxGeometry width="50" height="50" relative="1" as="geometry">
            <mxPoint x="1735" y="1420" as="sourcePoint" />
            <mxPoint x="2275" y="1420" as="targetPoint" />
          </mxGeometry>
        </mxCell>
        <mxCell id="Xz4y95kfZ1F9NAdlPpzG-94" value="" style="endArrow=classic;html=1;rounded=0;" parent="1" edge="1">
          <mxGeometry width="50" height="50" relative="1" as="geometry">
            <mxPoint x="1735" y="1460" as="sourcePoint" />
            <mxPoint x="1735" y="1360" as="targetPoint" />
          </mxGeometry>
        </mxCell>
        <mxCell id="Xz4y95kfZ1F9NAdlPpzG-109" value="" style="endArrow=classic;html=1;rounded=0;" parent="1" edge="1">
          <mxGeometry width="50" height="50" relative="1" as="geometry">
            <mxPoint x="1735" y="1320" as="sourcePoint" />
            <mxPoint x="2275" y="1320" as="targetPoint" />
          </mxGeometry>
        </mxCell>
        <mxCell id="Xz4y95kfZ1F9NAdlPpzG-110" value="" style="endArrow=classic;html=1;rounded=0;" parent="1" edge="1">
          <mxGeometry width="50" height="50" relative="1" as="geometry">
            <mxPoint x="1735" y="1355" as="sourcePoint" />
            <mxPoint x="1735" y="1220" as="targetPoint" />
          </mxGeometry>
        </mxCell>
        <mxCell id="Xz4y95kfZ1F9NAdlPpzG-111" value="jerk" style="text;html=1;align=center;verticalAlign=middle;resizable=0;points=[];autosize=1;strokeColor=none;fillColor=none;" parent="1" vertex="1">
          <mxGeometry x="1700" y="1460" width="40" height="30" as="geometry" />
        </mxCell>
        <mxCell id="Xz4y95kfZ1F9NAdlPpzG-112" value="acc" style="text;html=1;align=center;verticalAlign=middle;resizable=0;points=[];autosize=1;strokeColor=none;fillColor=none;" parent="1" vertex="1">
          <mxGeometry x="1700" y="1350" width="40" height="30" as="geometry" />
        </mxCell>
        <mxCell id="Xz4y95kfZ1F9NAdlPpzG-113" value="vel" style="text;html=1;align=center;verticalAlign=middle;resizable=0;points=[];autosize=1;strokeColor=none;fillColor=none;" parent="1" vertex="1">
          <mxGeometry x="1701" y="1231" width="40" height="30" as="geometry" />
        </mxCell>
        <mxCell id="Xz4y95kfZ1F9NAdlPpzG-114" value="" style="curved=1;endArrow=none;html=1;rounded=0;endFill=0;" parent="1" edge="1">
          <mxGeometry width="50" height="50" relative="1" as="geometry">
            <mxPoint x="1735" y="1320" as="sourcePoint" />
            <mxPoint x="1815" y="1300" as="targetPoint" />
            <Array as="points">
              <mxPoint x="1755" y="1320" />
              <mxPoint x="1775" y="1310" />
              <mxPoint x="1795" y="1300" />
            </Array>
          </mxGeometry>
        </mxCell>
        <mxCell id="Xz4y95kfZ1F9NAdlPpzG-115" value="" style="endArrow=none;html=1;rounded=0;" parent="1" edge="1">
          <mxGeometry width="50" height="50" relative="1" as="geometry">
            <mxPoint x="1975" y="1229.97" as="sourcePoint" />
            <mxPoint x="2015" y="1229.97" as="targetPoint" />
          </mxGeometry>
        </mxCell>
        <mxCell id="Xz4y95kfZ1F9NAdlPpzG-116" value="" style="endArrow=none;dashed=1;html=1;strokeWidth=1;rounded=0;" parent="1" edge="1">
          <mxGeometry width="50" height="50" relative="1" as="geometry">
            <mxPoint x="1775" y="1610" as="sourcePoint" />
            <mxPoint x="1775" y="1220" as="targetPoint" />
          </mxGeometry>
        </mxCell>
        <mxCell id="Xz4y95kfZ1F9NAdlPpzG-117" value="" style="endArrow=none;dashed=1;html=1;strokeWidth=1;rounded=0;" parent="1" edge="1">
          <mxGeometry width="50" height="50" relative="1" as="geometry">
            <mxPoint x="1815" y="1610" as="sourcePoint" />
            <mxPoint x="1815" y="1220" as="targetPoint" />
          </mxGeometry>
        </mxCell>
        <mxCell id="Xz4y95kfZ1F9NAdlPpzG-118" value="" style="endArrow=none;dashed=1;html=1;strokeWidth=1;rounded=0;" parent="1" edge="1">
          <mxGeometry width="50" height="50" relative="1" as="geometry">
            <mxPoint x="1855" y="1610" as="sourcePoint" />
            <mxPoint x="1855" y="1220" as="targetPoint" />
          </mxGeometry>
        </mxCell>
        <mxCell id="Xz4y95kfZ1F9NAdlPpzG-119" value="" style="endArrow=none;dashed=1;html=1;strokeWidth=1;rounded=0;" parent="1" edge="1">
          <mxGeometry width="50" height="50" relative="1" as="geometry">
            <mxPoint x="1895" y="1610" as="sourcePoint" />
            <mxPoint x="1895" y="1220" as="targetPoint" />
          </mxGeometry>
        </mxCell>
        <mxCell id="Xz4y95kfZ1F9NAdlPpzG-120" value="" style="endArrow=none;dashed=1;html=1;strokeWidth=1;rounded=0;" parent="1" edge="1">
          <mxGeometry width="50" height="50" relative="1" as="geometry">
            <mxPoint x="1935" y="1610" as="sourcePoint" />
            <mxPoint x="1935" y="1220" as="targetPoint" />
          </mxGeometry>
        </mxCell>
        <mxCell id="Xz4y95kfZ1F9NAdlPpzG-121" value="" style="endArrow=none;dashed=1;html=1;strokeWidth=1;rounded=0;" parent="1" edge="1">
          <mxGeometry width="50" height="50" relative="1" as="geometry">
            <mxPoint x="1975" y="1610" as="sourcePoint" />
            <mxPoint x="1975" y="1220" as="targetPoint" />
          </mxGeometry>
        </mxCell>
        <mxCell id="Xz4y95kfZ1F9NAdlPpzG-122" value="" style="endArrow=none;dashed=1;html=1;strokeWidth=1;rounded=0;" parent="1" edge="1">
          <mxGeometry width="50" height="50" relative="1" as="geometry">
            <mxPoint x="2015" y="1610" as="sourcePoint" />
            <mxPoint x="2015" y="1220" as="targetPoint" />
          </mxGeometry>
        </mxCell>
        <mxCell id="Xz4y95kfZ1F9NAdlPpzG-123" value="" style="endArrow=none;dashed=1;html=1;strokeWidth=1;rounded=0;" parent="1" edge="1">
          <mxGeometry width="50" height="50" relative="1" as="geometry">
            <mxPoint x="2055" y="1610" as="sourcePoint" />
            <mxPoint x="2055" y="1220" as="targetPoint" />
          </mxGeometry>
        </mxCell>
        <mxCell id="Xz4y95kfZ1F9NAdlPpzG-124" value="" style="endArrow=none;dashed=1;html=1;strokeWidth=1;rounded=0;" parent="1" edge="1">
          <mxGeometry width="50" height="50" relative="1" as="geometry">
            <mxPoint x="2095" y="1610" as="sourcePoint" />
            <mxPoint x="2095" y="1220" as="targetPoint" />
          </mxGeometry>
        </mxCell>
        <mxCell id="Xz4y95kfZ1F9NAdlPpzG-125" value="" style="endArrow=none;dashed=1;html=1;strokeWidth=1;rounded=0;" parent="1" edge="1">
          <mxGeometry width="50" height="50" relative="1" as="geometry">
            <mxPoint x="1975" y="1300" as="sourcePoint" />
            <mxPoint x="1815" y="1300" as="targetPoint" />
          </mxGeometry>
        </mxCell>
        <mxCell id="Xz4y95kfZ1F9NAdlPpzG-126" value="" style="endArrow=classic;html=1;rounded=0;startArrow=classic;startFill=1;" parent="1" edge="1">
          <mxGeometry relative="1" as="geometry">
            <mxPoint x="1735" y="1439.8" as="sourcePoint" />
            <mxPoint x="1815" y="1440" as="targetPoint" />
          </mxGeometry>
        </mxCell>
        <mxCell id="Xz4y95kfZ1F9NAdlPpzG-127" value="&lt;u&gt;Td&lt;/u&gt;" style="edgeLabel;resizable=0;html=1;;align=center;verticalAlign=middle;" parent="Xz4y95kfZ1F9NAdlPpzG-126" connectable="0" vertex="1">
          <mxGeometry relative="1" as="geometry">
            <mxPoint y="-8" as="offset" />
          </mxGeometry>
        </mxCell>
        <mxCell id="Xz4y95kfZ1F9NAdlPpzG-128" value="2" style="text;html=1;align=center;verticalAlign=middle;resizable=0;points=[];autosize=1;strokeColor=none;fillColor=none;" parent="1" vertex="1">
          <mxGeometry x="1760" y="1430" width="30" height="30" as="geometry" />
        </mxCell>
        <mxCell id="Xz4y95kfZ1F9NAdlPpzG-129" value="" style="endArrow=classic;html=1;rounded=0;startArrow=classic;startFill=1;" parent="1" edge="1">
          <mxGeometry relative="1" as="geometry">
            <mxPoint x="1890" y="1301" as="sourcePoint" />
            <mxPoint x="1890" y="1261" as="targetPoint" />
          </mxGeometry>
        </mxCell>
        <mxCell id="Xz4y95kfZ1F9NAdlPpzG-130" value="&lt;font style=&quot;font-size: 8px;&quot;&gt;v&lt;sub&gt;2&lt;/sub&gt;&lt;/font&gt;" style="edgeLabel;resizable=0;html=1;;align=center;verticalAlign=middle;" parent="Xz4y95kfZ1F9NAdlPpzG-129" connectable="0" vertex="1">
          <mxGeometry relative="1" as="geometry" />
        </mxCell>
        <mxCell id="Xz4y95kfZ1F9NAdlPpzG-131" value="" style="endArrow=classic;html=1;rounded=0;startArrow=classic;startFill=1;" parent="1" edge="1">
          <mxGeometry relative="1" as="geometry">
            <mxPoint x="1812" y="1320" as="sourcePoint" />
            <mxPoint x="1812" y="1300" as="targetPoint" />
          </mxGeometry>
        </mxCell>
        <mxCell id="Xz4y95kfZ1F9NAdlPpzG-132" value="&lt;font style=&quot;font-size: 9px;&quot;&gt;v&lt;sub&gt;1&lt;/sub&gt;&lt;/font&gt;" style="edgeLabel;resizable=0;html=1;;align=center;verticalAlign=middle;labelBackgroundColor=none;" parent="Xz4y95kfZ1F9NAdlPpzG-131" connectable="0" vertex="1">
          <mxGeometry relative="1" as="geometry">
            <mxPoint x="8" as="offset" />
          </mxGeometry>
        </mxCell>
        <mxCell id="Xz4y95kfZ1F9NAdlPpzG-133" value="" style="endArrow=classic;html=1;rounded=0;startArrow=classic;startFill=1;" parent="1" edge="1">
          <mxGeometry relative="1" as="geometry">
            <mxPoint x="1975" y="1439.87" as="sourcePoint" />
            <mxPoint x="2015" y="1439.87" as="targetPoint" />
          </mxGeometry>
        </mxCell>
        <mxCell id="Xz4y95kfZ1F9NAdlPpzG-134" value="Tc" style="edgeLabel;resizable=0;html=1;;align=center;verticalAlign=middle;" parent="Xz4y95kfZ1F9NAdlPpzG-133" connectable="0" vertex="1">
          <mxGeometry relative="1" as="geometry" />
        </mxCell>
        <mxCell id="Xz4y95kfZ1F9NAdlPpzG-135" value="" style="endArrow=classic;html=1;rounded=0;startArrow=classic;startFill=1;" parent="1" edge="1">
          <mxGeometry relative="1" as="geometry">
            <mxPoint x="1995" y="1321" as="sourcePoint" />
            <mxPoint x="1995" y="1230" as="targetPoint" />
          </mxGeometry>
        </mxCell>
        <mxCell id="Xz4y95kfZ1F9NAdlPpzG-136" value="v&lt;sub&gt;max&lt;/sub&gt;" style="edgeLabel;resizable=0;html=1;;align=center;verticalAlign=middle;" parent="Xz4y95kfZ1F9NAdlPpzG-135" connectable="0" vertex="1">
          <mxGeometry relative="1" as="geometry" />
        </mxCell>
        <mxCell id="Xz4y95kfZ1F9NAdlPpzG-137" value="" style="curved=1;endArrow=none;html=1;rounded=0;endFill=0;" parent="1" edge="1">
          <mxGeometry width="50" height="50" relative="1" as="geometry">
            <mxPoint x="1815" y="1300" as="sourcePoint" />
            <mxPoint x="1895" y="1260" as="targetPoint" />
            <Array as="points">
              <mxPoint x="1835" y="1300" />
              <mxPoint x="1855" y="1280" />
              <mxPoint x="1875" y="1260" />
            </Array>
          </mxGeometry>
        </mxCell>
        <mxCell id="Xz4y95kfZ1F9NAdlPpzG-100" value="" style="endArrow=classic;html=1;rounded=0;startArrow=classic;startFill=1;" parent="1" edge="1">
          <mxGeometry relative="1" as="geometry">
            <mxPoint x="1775" y="1420" as="sourcePoint" />
            <mxPoint x="1775" y="1400" as="targetPoint" />
          </mxGeometry>
        </mxCell>
        <mxCell id="Xz4y95kfZ1F9NAdlPpzG-101" value="&lt;font style=&quot;font-size: 8px;&quot;&gt;a&lt;sub&gt;1&lt;/sub&gt;&lt;/font&gt;" style="edgeLabel;resizable=0;html=1;;align=center;verticalAlign=middle;labelBackgroundColor=none;" parent="Xz4y95kfZ1F9NAdlPpzG-100" connectable="0" vertex="1">
          <mxGeometry relative="1" as="geometry">
            <mxPoint x="8" as="offset" />
          </mxGeometry>
        </mxCell>
        <mxCell id="Xz4y95kfZ1F9NAdlPpzG-102" value="" style="endArrow=classic;html=1;rounded=0;startArrow=classic;startFill=1;" parent="1" edge="1">
          <mxGeometry relative="1" as="geometry">
            <mxPoint x="1855" y="1420" as="sourcePoint" />
            <mxPoint x="1855" y="1380" as="targetPoint" />
          </mxGeometry>
        </mxCell>
        <mxCell id="Xz4y95kfZ1F9NAdlPpzG-103" value="&lt;font style=&quot;font-size: 8px;&quot;&gt;a&lt;sub&gt;2&lt;/sub&gt;&lt;/font&gt;" style="edgeLabel;resizable=0;html=1;;align=center;verticalAlign=middle;labelBackgroundColor=default;" parent="Xz4y95kfZ1F9NAdlPpzG-102" connectable="0" vertex="1">
          <mxGeometry relative="1" as="geometry">
            <mxPoint as="offset" />
          </mxGeometry>
        </mxCell>
        <mxCell id="Xz4y95kfZ1F9NAdlPpzG-140" value="" style="endArrow=classic;html=1;rounded=0;startArrow=classic;startFill=1;" parent="1" edge="1">
          <mxGeometry relative="1" as="geometry">
            <mxPoint x="1935" y="1420" as="sourcePoint" />
            <mxPoint x="1935" y="1390" as="targetPoint" />
          </mxGeometry>
        </mxCell>
        <mxCell id="Xz4y95kfZ1F9NAdlPpzG-141" value="&lt;font style=&quot;font-size: 8px;&quot;&gt;a&lt;sub&gt;3&lt;/sub&gt;&lt;/font&gt;" style="edgeLabel;resizable=0;html=1;;align=center;verticalAlign=middle;labelBackgroundColor=none;" parent="Xz4y95kfZ1F9NAdlPpzG-140" connectable="0" vertex="1">
          <mxGeometry relative="1" as="geometry">
            <mxPoint x="5" y="-2" as="offset" />
          </mxGeometry>
        </mxCell>
        <mxCell id="Xz4y95kfZ1F9NAdlPpzG-142" value="" style="endArrow=classic;html=1;rounded=0;startArrow=classic;startFill=1;" parent="1" edge="1">
          <mxGeometry relative="1" as="geometry">
            <mxPoint x="1815" y="1439.8" as="sourcePoint" />
            <mxPoint x="1895" y="1440" as="targetPoint" />
          </mxGeometry>
        </mxCell>
        <mxCell id="Xz4y95kfZ1F9NAdlPpzG-143" value="&lt;u&gt;Td&lt;/u&gt;" style="edgeLabel;resizable=0;html=1;;align=center;verticalAlign=middle;" parent="Xz4y95kfZ1F9NAdlPpzG-142" connectable="0" vertex="1">
          <mxGeometry relative="1" as="geometry">
            <mxPoint y="-8" as="offset" />
          </mxGeometry>
        </mxCell>
        <mxCell id="Xz4y95kfZ1F9NAdlPpzG-144" value="2" style="text;html=1;align=center;verticalAlign=middle;resizable=0;points=[];autosize=1;strokeColor=none;fillColor=none;" parent="1" vertex="1">
          <mxGeometry x="1840" y="1430" width="30" height="30" as="geometry" />
        </mxCell>
        <mxCell id="Xz4y95kfZ1F9NAdlPpzG-145" value="" style="group" parent="1" vertex="1" connectable="0">
          <mxGeometry x="1735" y="1380" width="240" height="40" as="geometry" />
        </mxCell>
        <mxCell id="Xz4y95kfZ1F9NAdlPpzG-96" value="" style="endArrow=none;html=1;rounded=0;" parent="Xz4y95kfZ1F9NAdlPpzG-145" edge="1">
          <mxGeometry width="50" height="50" relative="1" as="geometry">
            <mxPoint y="40" as="sourcePoint" />
            <mxPoint x="40" y="20" as="targetPoint" />
          </mxGeometry>
        </mxCell>
        <mxCell id="Xz4y95kfZ1F9NAdlPpzG-97" value="" style="endArrow=none;html=1;rounded=0;" parent="Xz4y95kfZ1F9NAdlPpzG-145" edge="1">
          <mxGeometry width="50" height="50" relative="1" as="geometry">
            <mxPoint x="80" y="40" as="sourcePoint" />
            <mxPoint x="40" y="20" as="targetPoint" />
          </mxGeometry>
        </mxCell>
        <mxCell id="Xz4y95kfZ1F9NAdlPpzG-98" value="" style="endArrow=none;html=1;rounded=0;" parent="Xz4y95kfZ1F9NAdlPpzG-145" edge="1">
          <mxGeometry width="50" height="50" relative="1" as="geometry">
            <mxPoint x="80" y="40" as="sourcePoint" />
            <mxPoint x="120" as="targetPoint" />
          </mxGeometry>
        </mxCell>
        <mxCell id="Xz4y95kfZ1F9NAdlPpzG-99" value="" style="endArrow=none;html=1;rounded=0;" parent="Xz4y95kfZ1F9NAdlPpzG-145" edge="1">
          <mxGeometry width="50" height="50" relative="1" as="geometry">
            <mxPoint x="160" y="40" as="sourcePoint" />
            <mxPoint x="120" as="targetPoint" />
          </mxGeometry>
        </mxCell>
        <mxCell id="Xz4y95kfZ1F9NAdlPpzG-105" value="" style="endArrow=none;html=1;rounded=0;" parent="Xz4y95kfZ1F9NAdlPpzG-145" edge="1">
          <mxGeometry width="50" height="50" relative="1" as="geometry">
            <mxPoint x="160" y="40" as="sourcePoint" />
            <mxPoint x="200" y="10" as="targetPoint" />
          </mxGeometry>
        </mxCell>
        <mxCell id="Xz4y95kfZ1F9NAdlPpzG-106" value="" style="endArrow=none;html=1;rounded=0;" parent="Xz4y95kfZ1F9NAdlPpzG-145" edge="1">
          <mxGeometry width="50" height="50" relative="1" as="geometry">
            <mxPoint x="240" y="40" as="sourcePoint" />
            <mxPoint x="200" y="10" as="targetPoint" />
          </mxGeometry>
        </mxCell>
        <mxCell id="Xz4y95kfZ1F9NAdlPpzG-149" value="" style="group;flipV=1;" parent="1" vertex="1" connectable="0">
          <mxGeometry x="2015" y="1420" width="240" height="40" as="geometry" />
        </mxCell>
        <mxCell id="Xz4y95kfZ1F9NAdlPpzG-150" value="" style="endArrow=none;html=1;rounded=0;" parent="Xz4y95kfZ1F9NAdlPpzG-149" edge="1">
          <mxGeometry width="50" height="50" relative="1" as="geometry">
            <mxPoint as="sourcePoint" />
            <mxPoint x="40" y="20" as="targetPoint" />
          </mxGeometry>
        </mxCell>
        <mxCell id="Xz4y95kfZ1F9NAdlPpzG-151" value="" style="endArrow=none;html=1;rounded=0;" parent="Xz4y95kfZ1F9NAdlPpzG-149" edge="1">
          <mxGeometry width="50" height="50" relative="1" as="geometry">
            <mxPoint x="80" as="sourcePoint" />
            <mxPoint x="40" y="20" as="targetPoint" />
          </mxGeometry>
        </mxCell>
        <mxCell id="Xz4y95kfZ1F9NAdlPpzG-152" value="" style="endArrow=none;html=1;rounded=0;" parent="Xz4y95kfZ1F9NAdlPpzG-149" edge="1">
          <mxGeometry width="50" height="50" relative="1" as="geometry">
            <mxPoint x="80" as="sourcePoint" />
            <mxPoint x="120" y="40" as="targetPoint" />
          </mxGeometry>
        </mxCell>
        <mxCell id="Xz4y95kfZ1F9NAdlPpzG-153" value="" style="endArrow=none;html=1;rounded=0;" parent="Xz4y95kfZ1F9NAdlPpzG-149" edge="1">
          <mxGeometry width="50" height="50" relative="1" as="geometry">
            <mxPoint x="160" as="sourcePoint" />
            <mxPoint x="120" y="40" as="targetPoint" />
          </mxGeometry>
        </mxCell>
        <mxCell id="Xz4y95kfZ1F9NAdlPpzG-154" value="" style="endArrow=none;html=1;rounded=0;" parent="Xz4y95kfZ1F9NAdlPpzG-149" edge="1">
          <mxGeometry width="50" height="50" relative="1" as="geometry">
            <mxPoint x="160" as="sourcePoint" />
            <mxPoint x="200" y="30" as="targetPoint" />
          </mxGeometry>
        </mxCell>
        <mxCell id="Xz4y95kfZ1F9NAdlPpzG-155" value="" style="endArrow=none;html=1;rounded=0;" parent="Xz4y95kfZ1F9NAdlPpzG-149" edge="1">
          <mxGeometry width="50" height="50" relative="1" as="geometry">
            <mxPoint x="240" as="sourcePoint" />
            <mxPoint x="200" y="30" as="targetPoint" />
          </mxGeometry>
        </mxCell>
        <mxCell id="Xz4y95kfZ1F9NAdlPpzG-79" value="" style="endArrow=classic;html=1;rounded=0;startArrow=classic;startFill=1;" parent="1" edge="1">
          <mxGeometry relative="1" as="geometry">
            <mxPoint x="1755" y="1550" as="sourcePoint" />
            <mxPoint x="1755" y="1530" as="targetPoint" />
          </mxGeometry>
        </mxCell>
        <mxCell id="Xz4y95kfZ1F9NAdlPpzG-80" value="&lt;font style=&quot;font-size: 8px;&quot;&gt;j&lt;sub&gt;1&lt;/sub&gt;&lt;/font&gt;" style="edgeLabel;resizable=0;html=1;;align=center;verticalAlign=middle;labelBackgroundColor=none;" parent="Xz4y95kfZ1F9NAdlPpzG-79" connectable="0" vertex="1">
          <mxGeometry relative="1" as="geometry">
            <mxPoint x="7" as="offset" />
          </mxGeometry>
        </mxCell>
        <mxCell id="Xz4y95kfZ1F9NAdlPpzG-81" value="" style="endArrow=classic;html=1;rounded=0;startArrow=classic;startFill=1;" parent="1" edge="1">
          <mxGeometry relative="1" as="geometry">
            <mxPoint x="1835" y="1550" as="sourcePoint" />
            <mxPoint x="1835" y="1510" as="targetPoint" />
          </mxGeometry>
        </mxCell>
        <mxCell id="Xz4y95kfZ1F9NAdlPpzG-82" value="&lt;font style=&quot;font-size: 8px;&quot;&gt;j&lt;sub&gt;2&lt;/sub&gt;&lt;/font&gt;" style="edgeLabel;resizable=0;html=1;;align=center;verticalAlign=middle;labelBackgroundColor=default;" parent="Xz4y95kfZ1F9NAdlPpzG-81" connectable="0" vertex="1">
          <mxGeometry relative="1" as="geometry">
            <mxPoint y="-1" as="offset" />
          </mxGeometry>
        </mxCell>
        <mxCell id="Xz4y95kfZ1F9NAdlPpzG-156" value="" style="endArrow=classic;html=1;rounded=0;startArrow=classic;startFill=1;" parent="1" edge="1">
          <mxGeometry relative="1" as="geometry">
            <mxPoint x="1915" y="1550" as="sourcePoint" />
            <mxPoint x="1915" y="1520" as="targetPoint" />
          </mxGeometry>
        </mxCell>
        <mxCell id="Xz4y95kfZ1F9NAdlPpzG-157" value="&lt;font style=&quot;font-size: 8px;&quot;&gt;j&lt;sub&gt;3&lt;/sub&gt;&lt;/font&gt;" style="edgeLabel;resizable=0;html=1;;align=center;verticalAlign=middle;labelBackgroundColor=none;" parent="Xz4y95kfZ1F9NAdlPpzG-156" connectable="0" vertex="1">
          <mxGeometry relative="1" as="geometry">
            <mxPoint x="5" y="-1" as="offset" />
          </mxGeometry>
        </mxCell>
        <mxCell id="Xz4y95kfZ1F9NAdlPpzG-158" value="" style="group" parent="1" vertex="1" connectable="0">
          <mxGeometry x="1735" y="1510" width="240" height="80" as="geometry" />
        </mxCell>
        <mxCell id="Xz4y95kfZ1F9NAdlPpzG-70" value="" style="endArrow=none;html=1;rounded=0;" parent="Xz4y95kfZ1F9NAdlPpzG-158" edge="1">
          <mxGeometry width="50" height="50" relative="1" as="geometry">
            <mxPoint y="20" as="sourcePoint" />
            <mxPoint x="40" y="20" as="targetPoint" />
          </mxGeometry>
        </mxCell>
        <mxCell id="Xz4y95kfZ1F9NAdlPpzG-71" value="" style="endArrow=none;html=1;rounded=0;" parent="Xz4y95kfZ1F9NAdlPpzG-158" edge="1">
          <mxGeometry width="50" height="50" relative="1" as="geometry">
            <mxPoint x="40" y="20" as="sourcePoint" />
            <mxPoint x="40" y="60" as="targetPoint" />
          </mxGeometry>
        </mxCell>
        <mxCell id="Xz4y95kfZ1F9NAdlPpzG-72" value="" style="endArrow=none;html=1;rounded=0;" parent="Xz4y95kfZ1F9NAdlPpzG-158" edge="1">
          <mxGeometry width="50" height="50" relative="1" as="geometry">
            <mxPoint x="40" y="60" as="sourcePoint" />
            <mxPoint x="80" y="60" as="targetPoint" />
          </mxGeometry>
        </mxCell>
        <mxCell id="Xz4y95kfZ1F9NAdlPpzG-73" value="" style="endArrow=none;html=1;rounded=0;" parent="Xz4y95kfZ1F9NAdlPpzG-158" edge="1">
          <mxGeometry width="50" height="50" relative="1" as="geometry">
            <mxPoint x="80" as="sourcePoint" />
            <mxPoint x="80" y="60" as="targetPoint" />
          </mxGeometry>
        </mxCell>
        <mxCell id="Xz4y95kfZ1F9NAdlPpzG-74" value="" style="endArrow=none;html=1;rounded=0;" parent="Xz4y95kfZ1F9NAdlPpzG-158" edge="1">
          <mxGeometry width="50" height="50" relative="1" as="geometry">
            <mxPoint x="80" as="sourcePoint" />
            <mxPoint x="120" as="targetPoint" />
          </mxGeometry>
        </mxCell>
        <mxCell id="Xz4y95kfZ1F9NAdlPpzG-75" value="" style="endArrow=none;html=1;rounded=0;" parent="Xz4y95kfZ1F9NAdlPpzG-158" edge="1">
          <mxGeometry width="50" height="50" relative="1" as="geometry">
            <mxPoint x="120" as="sourcePoint" />
            <mxPoint x="120" y="80" as="targetPoint" />
          </mxGeometry>
        </mxCell>
        <mxCell id="Xz4y95kfZ1F9NAdlPpzG-76" value="" style="endArrow=none;html=1;rounded=0;" parent="Xz4y95kfZ1F9NAdlPpzG-158" edge="1">
          <mxGeometry width="50" height="50" relative="1" as="geometry">
            <mxPoint x="160" y="80" as="sourcePoint" />
            <mxPoint x="120" y="80" as="targetPoint" />
          </mxGeometry>
        </mxCell>
        <mxCell id="Xz4y95kfZ1F9NAdlPpzG-77" value="" style="endArrow=none;html=1;rounded=0;" parent="Xz4y95kfZ1F9NAdlPpzG-158" edge="1">
          <mxGeometry width="50" height="50" relative="1" as="geometry">
            <mxPoint x="160" y="10" as="sourcePoint" />
            <mxPoint x="160" y="80" as="targetPoint" />
          </mxGeometry>
        </mxCell>
        <mxCell id="Xz4y95kfZ1F9NAdlPpzG-78" value="" style="endArrow=none;html=1;rounded=0;" parent="Xz4y95kfZ1F9NAdlPpzG-158" edge="1">
          <mxGeometry width="50" height="50" relative="1" as="geometry">
            <mxPoint y="40" as="sourcePoint" />
            <mxPoint y="20" as="targetPoint" />
          </mxGeometry>
        </mxCell>
        <mxCell id="Xz4y95kfZ1F9NAdlPpzG-84" value="" style="endArrow=none;html=1;rounded=0;" parent="Xz4y95kfZ1F9NAdlPpzG-158" edge="1">
          <mxGeometry width="50" height="50" relative="1" as="geometry">
            <mxPoint x="160" y="10" as="sourcePoint" />
            <mxPoint x="200" y="10" as="targetPoint" />
          </mxGeometry>
        </mxCell>
        <mxCell id="Xz4y95kfZ1F9NAdlPpzG-85" value="" style="endArrow=none;html=1;rounded=0;" parent="Xz4y95kfZ1F9NAdlPpzG-158" edge="1">
          <mxGeometry width="50" height="50" relative="1" as="geometry">
            <mxPoint x="240" y="70" as="sourcePoint" />
            <mxPoint x="240" y="40" as="targetPoint" />
          </mxGeometry>
        </mxCell>
        <mxCell id="Xz4y95kfZ1F9NAdlPpzG-88" value="" style="endArrow=none;html=1;rounded=0;" parent="Xz4y95kfZ1F9NAdlPpzG-158" edge="1">
          <mxGeometry width="50" height="50" relative="1" as="geometry">
            <mxPoint x="200" y="70" as="sourcePoint" />
            <mxPoint x="240" y="70" as="targetPoint" />
          </mxGeometry>
        </mxCell>
        <mxCell id="Xz4y95kfZ1F9NAdlPpzG-92" value="" style="endArrow=none;html=1;rounded=0;" parent="Xz4y95kfZ1F9NAdlPpzG-158" edge="1">
          <mxGeometry width="50" height="50" relative="1" as="geometry">
            <mxPoint x="200" y="10" as="sourcePoint" />
            <mxPoint x="200" y="70" as="targetPoint" />
          </mxGeometry>
        </mxCell>
        <mxCell id="Xz4y95kfZ1F9NAdlPpzG-159" value="" style="group;flipV=1;" parent="1" vertex="1" connectable="0">
          <mxGeometry x="2015" y="1510" width="240" height="80" as="geometry" />
        </mxCell>
        <mxCell id="Xz4y95kfZ1F9NAdlPpzG-160" value="" style="endArrow=none;html=1;rounded=0;" parent="Xz4y95kfZ1F9NAdlPpzG-159" edge="1">
          <mxGeometry width="50" height="50" relative="1" as="geometry">
            <mxPoint y="60" as="sourcePoint" />
            <mxPoint x="40" y="60" as="targetPoint" />
          </mxGeometry>
        </mxCell>
        <mxCell id="Xz4y95kfZ1F9NAdlPpzG-161" value="" style="endArrow=none;html=1;rounded=0;" parent="Xz4y95kfZ1F9NAdlPpzG-159" edge="1">
          <mxGeometry width="50" height="50" relative="1" as="geometry">
            <mxPoint x="40" y="60" as="sourcePoint" />
            <mxPoint x="40" y="20" as="targetPoint" />
          </mxGeometry>
        </mxCell>
        <mxCell id="Xz4y95kfZ1F9NAdlPpzG-162" value="" style="endArrow=none;html=1;rounded=0;" parent="Xz4y95kfZ1F9NAdlPpzG-159" edge="1">
          <mxGeometry width="50" height="50" relative="1" as="geometry">
            <mxPoint x="40" y="20" as="sourcePoint" />
            <mxPoint x="80" y="20" as="targetPoint" />
          </mxGeometry>
        </mxCell>
        <mxCell id="Xz4y95kfZ1F9NAdlPpzG-163" value="" style="endArrow=none;html=1;rounded=0;" parent="Xz4y95kfZ1F9NAdlPpzG-159" edge="1">
          <mxGeometry width="50" height="50" relative="1" as="geometry">
            <mxPoint x="80" y="80" as="sourcePoint" />
            <mxPoint x="80" y="20" as="targetPoint" />
          </mxGeometry>
        </mxCell>
        <mxCell id="Xz4y95kfZ1F9NAdlPpzG-164" value="" style="endArrow=none;html=1;rounded=0;" parent="Xz4y95kfZ1F9NAdlPpzG-159" edge="1">
          <mxGeometry width="50" height="50" relative="1" as="geometry">
            <mxPoint x="80" y="80" as="sourcePoint" />
            <mxPoint x="120" y="80" as="targetPoint" />
          </mxGeometry>
        </mxCell>
        <mxCell id="Xz4y95kfZ1F9NAdlPpzG-165" value="" style="endArrow=none;html=1;rounded=0;" parent="Xz4y95kfZ1F9NAdlPpzG-159" edge="1">
          <mxGeometry width="50" height="50" relative="1" as="geometry">
            <mxPoint x="120" y="80" as="sourcePoint" />
            <mxPoint x="120" as="targetPoint" />
          </mxGeometry>
        </mxCell>
        <mxCell id="Xz4y95kfZ1F9NAdlPpzG-166" value="" style="endArrow=none;html=1;rounded=0;" parent="Xz4y95kfZ1F9NAdlPpzG-159" edge="1">
          <mxGeometry width="50" height="50" relative="1" as="geometry">
            <mxPoint x="160" as="sourcePoint" />
            <mxPoint x="120" as="targetPoint" />
          </mxGeometry>
        </mxCell>
        <mxCell id="Xz4y95kfZ1F9NAdlPpzG-167" value="" style="endArrow=none;html=1;rounded=0;" parent="Xz4y95kfZ1F9NAdlPpzG-159" edge="1">
          <mxGeometry width="50" height="50" relative="1" as="geometry">
            <mxPoint x="160" y="70" as="sourcePoint" />
            <mxPoint x="160" as="targetPoint" />
          </mxGeometry>
        </mxCell>
        <mxCell id="Xz4y95kfZ1F9NAdlPpzG-168" value="" style="endArrow=none;html=1;rounded=0;" parent="Xz4y95kfZ1F9NAdlPpzG-159" edge="1">
          <mxGeometry width="50" height="50" relative="1" as="geometry">
            <mxPoint y="40" as="sourcePoint" />
            <mxPoint y="60" as="targetPoint" />
          </mxGeometry>
        </mxCell>
        <mxCell id="Xz4y95kfZ1F9NAdlPpzG-169" value="" style="endArrow=none;html=1;rounded=0;" parent="Xz4y95kfZ1F9NAdlPpzG-159" edge="1">
          <mxGeometry width="50" height="50" relative="1" as="geometry">
            <mxPoint x="160" y="70" as="sourcePoint" />
            <mxPoint x="200" y="70" as="targetPoint" />
          </mxGeometry>
        </mxCell>
        <mxCell id="Xz4y95kfZ1F9NAdlPpzG-170" value="" style="endArrow=none;html=1;rounded=0;" parent="Xz4y95kfZ1F9NAdlPpzG-159" edge="1">
          <mxGeometry width="50" height="50" relative="1" as="geometry">
            <mxPoint x="240" y="10" as="sourcePoint" />
            <mxPoint x="240" y="40" as="targetPoint" />
          </mxGeometry>
        </mxCell>
        <mxCell id="Xz4y95kfZ1F9NAdlPpzG-171" value="" style="endArrow=none;html=1;rounded=0;" parent="Xz4y95kfZ1F9NAdlPpzG-159" edge="1">
          <mxGeometry width="50" height="50" relative="1" as="geometry">
            <mxPoint x="200" y="10" as="sourcePoint" />
            <mxPoint x="240" y="10" as="targetPoint" />
          </mxGeometry>
        </mxCell>
        <mxCell id="Xz4y95kfZ1F9NAdlPpzG-172" value="" style="endArrow=none;html=1;rounded=0;" parent="Xz4y95kfZ1F9NAdlPpzG-159" edge="1">
          <mxGeometry width="50" height="50" relative="1" as="geometry">
            <mxPoint x="200" y="70" as="sourcePoint" />
            <mxPoint x="200" y="10" as="targetPoint" />
          </mxGeometry>
        </mxCell>
        <mxCell id="Xz4y95kfZ1F9NAdlPpzG-173" value="" style="curved=1;endArrow=none;html=1;rounded=0;endFill=0;" parent="1" edge="1">
          <mxGeometry width="50" height="50" relative="1" as="geometry">
            <mxPoint x="1895" y="1260" as="sourcePoint" />
            <mxPoint x="1975" y="1230" as="targetPoint" />
            <Array as="points">
              <mxPoint x="1915" y="1260" />
              <mxPoint x="1935" y="1250" />
              <mxPoint x="1935" y="1240" />
              <mxPoint x="1955" y="1230" />
            </Array>
          </mxGeometry>
        </mxCell>
        <mxCell id="Xz4y95kfZ1F9NAdlPpzG-174" value="" style="endArrow=none;dashed=1;html=1;strokeWidth=1;rounded=0;" parent="1" edge="1">
          <mxGeometry width="50" height="50" relative="1" as="geometry">
            <mxPoint x="1975" y="1259.85" as="sourcePoint" />
            <mxPoint x="1895" y="1260" as="targetPoint" />
          </mxGeometry>
        </mxCell>
        <mxCell id="Xz4y95kfZ1F9NAdlPpzG-175" value="" style="endArrow=classic;html=1;rounded=0;startArrow=classic;startFill=1;" parent="1" edge="1">
          <mxGeometry relative="1" as="geometry">
            <mxPoint x="1971" y="1260" as="sourcePoint" />
            <mxPoint x="1971" y="1231" as="targetPoint" />
          </mxGeometry>
        </mxCell>
        <mxCell id="Xz4y95kfZ1F9NAdlPpzG-176" value="&lt;font style=&quot;font-size: 8px;&quot;&gt;v&lt;sub&gt;3&lt;/sub&gt;&lt;/font&gt;" style="edgeLabel;resizable=0;html=1;;align=center;verticalAlign=middle;labelBackgroundColor=none;" parent="Xz4y95kfZ1F9NAdlPpzG-175" connectable="0" vertex="1">
          <mxGeometry relative="1" as="geometry">
            <mxPoint x="7" as="offset" />
          </mxGeometry>
        </mxCell>
        <mxCell id="Xz4y95kfZ1F9NAdlPpzG-177" value="" style="curved=1;endArrow=none;html=1;rounded=0;endFill=0;" parent="1" edge="1">
          <mxGeometry width="50" height="50" relative="1" as="geometry">
            <mxPoint x="2095" y="1250" as="sourcePoint" />
            <mxPoint x="2015" y="1230" as="targetPoint" />
            <Array as="points">
              <mxPoint x="2075" y="1250" />
              <mxPoint x="2055" y="1240" />
              <mxPoint x="2035" y="1230" />
            </Array>
          </mxGeometry>
        </mxCell>
        <mxCell id="Xz4y95kfZ1F9NAdlPpzG-178" value="" style="curved=1;endArrow=none;html=1;rounded=0;endFill=0;" parent="1" edge="1">
          <mxGeometry width="50" height="50" relative="1" as="geometry">
            <mxPoint x="2175" y="1290" as="sourcePoint" />
            <mxPoint x="2095" y="1250" as="targetPoint" />
            <Array as="points">
              <mxPoint x="2155" y="1290" />
              <mxPoint x="2135" y="1270" />
              <mxPoint x="2115" y="1250" />
            </Array>
          </mxGeometry>
        </mxCell>
        <mxCell id="Xz4y95kfZ1F9NAdlPpzG-179" value="" style="curved=1;endArrow=none;html=1;rounded=0;endFill=0;" parent="1" edge="1">
          <mxGeometry width="50" height="50" relative="1" as="geometry">
            <mxPoint x="2255" y="1320" as="sourcePoint" />
            <mxPoint x="2175" y="1290" as="targetPoint" />
            <Array as="points">
              <mxPoint x="2235" y="1320" />
              <mxPoint x="2215" y="1310" />
              <mxPoint x="2215" y="1300" />
              <mxPoint x="2195" y="1290" />
            </Array>
          </mxGeometry>
        </mxCell>
        <mxCell id="Xz4y95kfZ1F9NAdlPpzG-180" value="" style="endArrow=none;dashed=1;html=1;strokeWidth=1;rounded=0;" parent="1" edge="1">
          <mxGeometry width="50" height="50" relative="1" as="geometry">
            <mxPoint x="2135" y="1610" as="sourcePoint" />
            <mxPoint x="2135" y="1220" as="targetPoint" />
          </mxGeometry>
        </mxCell>
        <mxCell id="Xz4y95kfZ1F9NAdlPpzG-181" value="" style="endArrow=none;dashed=1;html=1;strokeWidth=1;rounded=0;" parent="1" edge="1">
          <mxGeometry width="50" height="50" relative="1" as="geometry">
            <mxPoint x="2175" y="1610" as="sourcePoint" />
            <mxPoint x="2175" y="1220" as="targetPoint" />
          </mxGeometry>
        </mxCell>
        <mxCell id="Xz4y95kfZ1F9NAdlPpzG-182" value="" style="endArrow=none;dashed=1;html=1;strokeWidth=1;rounded=0;" parent="1" edge="1">
          <mxGeometry width="50" height="50" relative="1" as="geometry">
            <mxPoint x="2215" y="1610" as="sourcePoint" />
            <mxPoint x="2215" y="1220" as="targetPoint" />
          </mxGeometry>
        </mxCell>
        <mxCell id="Xz4y95kfZ1F9NAdlPpzG-185" value="" style="endArrow=classic;html=1;rounded=0;startArrow=classic;startFill=1;" parent="1" edge="1">
          <mxGeometry relative="1" as="geometry">
            <mxPoint x="1895" y="1439.8" as="sourcePoint" />
            <mxPoint x="1975" y="1440" as="targetPoint" />
          </mxGeometry>
        </mxCell>
        <mxCell id="Xz4y95kfZ1F9NAdlPpzG-186" value="&lt;u&gt;Td&lt;/u&gt;" style="edgeLabel;resizable=0;html=1;;align=center;verticalAlign=middle;" parent="Xz4y95kfZ1F9NAdlPpzG-185" connectable="0" vertex="1">
          <mxGeometry relative="1" as="geometry">
            <mxPoint y="-8" as="offset" />
          </mxGeometry>
        </mxCell>
        <mxCell id="Xz4y95kfZ1F9NAdlPpzG-187" value="2" style="text;html=1;align=center;verticalAlign=middle;resizable=0;points=[];autosize=1;strokeColor=none;fillColor=none;" parent="1" vertex="1">
          <mxGeometry x="1920" y="1430" width="30" height="30" as="geometry" />
        </mxCell>
        <mxCell id="Xz4y95kfZ1F9NAdlPpzG-188" value="" style="endArrow=classic;html=1;rounded=0;" parent="1" edge="1">
          <mxGeometry width="50" height="50" relative="1" as="geometry">
            <mxPoint x="1135" y="1200" as="sourcePoint" />
            <mxPoint x="1535" y="1200" as="targetPoint" />
          </mxGeometry>
        </mxCell>
        <mxCell id="Xz4y95kfZ1F9NAdlPpzG-189" value="" style="endArrow=classic;html=1;rounded=0;" parent="1" edge="1">
          <mxGeometry width="50" height="50" relative="1" as="geometry">
            <mxPoint x="1135" y="1235" as="sourcePoint" />
            <mxPoint x="1135" y="840" as="targetPoint" />
          </mxGeometry>
        </mxCell>
        <mxCell id="Xz4y95kfZ1F9NAdlPpzG-190" value="" style="curved=1;endArrow=none;html=1;rounded=0;endFill=0;" parent="1" edge="1">
          <mxGeometry width="50" height="50" relative="1" as="geometry">
            <mxPoint x="1215" y="1170" as="sourcePoint" />
            <mxPoint x="1295" y="1080" as="targetPoint" />
            <Array as="points">
              <mxPoint x="1225" y="1160" />
              <mxPoint x="1285" y="1100" />
            </Array>
          </mxGeometry>
        </mxCell>
        <mxCell id="Xz4y95kfZ1F9NAdlPpzG-191" value="" style="curved=1;endArrow=none;html=1;rounded=0;endFill=0;" parent="1" edge="1">
          <mxGeometry width="50" height="50" relative="1" as="geometry">
            <mxPoint x="1135" y="1200" as="sourcePoint" />
            <mxPoint x="1215" y="1170" as="targetPoint" />
            <Array as="points">
              <mxPoint x="1175" y="1200" />
              <mxPoint x="1205" y="1180" />
            </Array>
          </mxGeometry>
        </mxCell>
        <mxCell id="Xz4y95kfZ1F9NAdlPpzG-192" value="" style="endArrow=none;html=1;rounded=0;" parent="1" edge="1">
          <mxGeometry width="50" height="50" relative="1" as="geometry">
            <mxPoint x="1295" y="1080" as="sourcePoint" />
            <mxPoint x="1335" y="1000" as="targetPoint" />
          </mxGeometry>
        </mxCell>
        <mxCell id="Xz4y95kfZ1F9NAdlPpzG-193" value="" style="curved=1;endArrow=none;html=1;rounded=0;endFill=0;" parent="1" edge="1">
          <mxGeometry width="50" height="50" relative="1" as="geometry">
            <mxPoint x="1415" y="910" as="sourcePoint" />
            <mxPoint x="1335" y="1000" as="targetPoint" />
            <Array as="points">
              <mxPoint x="1405" y="920" />
              <mxPoint x="1345" y="980" />
            </Array>
          </mxGeometry>
        </mxCell>
        <mxCell id="Xz4y95kfZ1F9NAdlPpzG-194" value="" style="curved=1;endArrow=none;html=1;rounded=0;endFill=0;" parent="1" edge="1">
          <mxGeometry width="50" height="50" relative="1" as="geometry">
            <mxPoint x="1495" y="880" as="sourcePoint" />
            <mxPoint x="1415" y="910" as="targetPoint" />
            <Array as="points">
              <mxPoint x="1455" y="880" />
              <mxPoint x="1425" y="900" />
            </Array>
          </mxGeometry>
        </mxCell>
        <mxCell id="Xz4y95kfZ1F9NAdlPpzG-195" value="" style="endArrow=none;dashed=1;html=1;strokeWidth=1;rounded=0;" parent="1" edge="1">
          <mxGeometry width="50" height="50" relative="1" as="geometry">
            <mxPoint x="1175" y="1240" as="sourcePoint" />
            <mxPoint x="1175" y="870" as="targetPoint" />
          </mxGeometry>
        </mxCell>
        <mxCell id="Xz4y95kfZ1F9NAdlPpzG-196" value="" style="endArrow=none;dashed=1;html=1;strokeWidth=1;rounded=0;" parent="1" edge="1">
          <mxGeometry width="50" height="50" relative="1" as="geometry">
            <mxPoint x="1215" y="1240" as="sourcePoint" />
            <mxPoint x="1215" y="870" as="targetPoint" />
          </mxGeometry>
        </mxCell>
        <mxCell id="Xz4y95kfZ1F9NAdlPpzG-197" value="" style="endArrow=none;dashed=1;html=1;strokeWidth=1;rounded=0;" parent="1" edge="1">
          <mxGeometry width="50" height="50" relative="1" as="geometry">
            <mxPoint x="1255" y="1240" as="sourcePoint" />
            <mxPoint x="1255" y="870" as="targetPoint" />
          </mxGeometry>
        </mxCell>
        <mxCell id="Xz4y95kfZ1F9NAdlPpzG-198" value="" style="endArrow=none;dashed=1;html=1;strokeWidth=1;rounded=0;" parent="1" edge="1">
          <mxGeometry width="50" height="50" relative="1" as="geometry">
            <mxPoint x="1295" y="1240" as="sourcePoint" />
            <mxPoint x="1295" y="870" as="targetPoint" />
          </mxGeometry>
        </mxCell>
        <mxCell id="Xz4y95kfZ1F9NAdlPpzG-199" value="" style="endArrow=none;dashed=1;html=1;strokeWidth=1;rounded=0;" parent="1" edge="1">
          <mxGeometry width="50" height="50" relative="1" as="geometry">
            <mxPoint x="1335" y="1240" as="sourcePoint" />
            <mxPoint x="1335" y="870" as="targetPoint" />
          </mxGeometry>
        </mxCell>
        <mxCell id="Xz4y95kfZ1F9NAdlPpzG-200" value="" style="endArrow=none;dashed=1;html=1;strokeWidth=1;rounded=0;" parent="1" edge="1">
          <mxGeometry width="50" height="50" relative="1" as="geometry">
            <mxPoint x="1375" y="1240" as="sourcePoint" />
            <mxPoint x="1375" y="870" as="targetPoint" />
          </mxGeometry>
        </mxCell>
        <mxCell id="Xz4y95kfZ1F9NAdlPpzG-201" value="" style="endArrow=none;dashed=1;html=1;strokeWidth=1;rounded=0;" parent="1" edge="1">
          <mxGeometry width="50" height="50" relative="1" as="geometry">
            <mxPoint x="1415" y="1240" as="sourcePoint" />
            <mxPoint x="1415" y="870" as="targetPoint" />
          </mxGeometry>
        </mxCell>
        <mxCell id="Xz4y95kfZ1F9NAdlPpzG-202" value="" style="endArrow=none;dashed=1;html=1;strokeWidth=1;rounded=0;" parent="1" edge="1">
          <mxGeometry width="50" height="50" relative="1" as="geometry">
            <mxPoint x="1455" y="1240" as="sourcePoint" />
            <mxPoint x="1455" y="870" as="targetPoint" />
          </mxGeometry>
        </mxCell>
        <mxCell id="Xz4y95kfZ1F9NAdlPpzG-203" value="" style="endArrow=none;dashed=1;html=1;strokeWidth=1;rounded=0;" parent="1" edge="1">
          <mxGeometry width="50" height="50" relative="1" as="geometry">
            <mxPoint x="1495" y="1240" as="sourcePoint" />
            <mxPoint x="1494" y="870" as="targetPoint" />
          </mxGeometry>
        </mxCell>
        <mxCell id="Xz4y95kfZ1F9NAdlPpzG-209" value="4" style="text;html=1;align=center;verticalAlign=middle;resizable=0;points=[];autosize=1;strokeColor=none;fillColor=none;" parent="1" vertex="1">
          <mxGeometry x="1140" y="1553" width="30" height="30" as="geometry" />
        </mxCell>
        <mxCell id="weSDCBt6Is57fs1nTCZ6-1" value="" style="endArrow=classic;html=1;rounded=0;" parent="1" edge="1">
          <mxGeometry width="50" height="50" relative="1" as="geometry">
            <mxPoint x="1135" y="1700" as="sourcePoint" />
            <mxPoint x="1535" y="1700" as="targetPoint" />
          </mxGeometry>
        </mxCell>
        <mxCell id="weSDCBt6Is57fs1nTCZ6-2" value="" style="endArrow=classic;html=1;rounded=0;" parent="1" edge="1">
          <mxGeometry width="50" height="50" relative="1" as="geometry">
            <mxPoint x="1135" y="1760" as="sourcePoint" />
            <mxPoint x="1135" y="1620" as="targetPoint" />
          </mxGeometry>
        </mxCell>
        <mxCell id="weSDCBt6Is57fs1nTCZ6-8" value="" style="curved=1;endArrow=none;html=1;rounded=0;endFill=0;fillColor=#dae8fc;strokeColor=#6c8ebf;" parent="1" edge="1">
          <mxGeometry width="50" height="50" relative="1" as="geometry">
            <mxPoint x="1295" y="1700" as="sourcePoint" />
            <mxPoint x="1135" y="1700" as="targetPoint" />
            <Array as="points">
              <mxPoint x="1275" y="1740" />
              <mxPoint x="1255" y="1760" />
              <mxPoint x="1235" y="1740" />
              <mxPoint x="1215" y="1700" />
              <mxPoint x="1195" y="1670" />
              <mxPoint x="1175" y="1650" />
              <mxPoint x="1155" y="1670" />
            </Array>
          </mxGeometry>
        </mxCell>
        <mxCell id="weSDCBt6Is57fs1nTCZ6-9" value="" style="curved=1;endArrow=none;html=1;rounded=0;endFill=0;fillColor=#dae8fc;strokeColor=#6c8ebf;" parent="1" edge="1">
          <mxGeometry width="50" height="50" relative="1" as="geometry">
            <mxPoint x="1455" y="1700" as="sourcePoint" />
            <mxPoint x="1295" y="1700" as="targetPoint" />
            <Array as="points">
              <mxPoint x="1435" y="1740" />
              <mxPoint x="1415" y="1760" />
              <mxPoint x="1395" y="1740" />
              <mxPoint x="1375" y="1700" />
              <mxPoint x="1355" y="1670" />
              <mxPoint x="1335" y="1650" />
              <mxPoint x="1315" y="1670" />
            </Array>
          </mxGeometry>
        </mxCell>
        <mxCell id="weSDCBt6Is57fs1nTCZ6-10" value="" style="curved=1;endArrow=none;html=1;rounded=0;endFill=0;fillColor=#d5e8d4;strokeColor=#82b366;" parent="1" edge="1">
          <mxGeometry width="50" height="50" relative="1" as="geometry">
            <mxPoint x="1375" y="1700" as="sourcePoint" />
            <mxPoint x="1215" y="1700" as="targetPoint" />
            <Array as="points">
              <mxPoint x="1355" y="1710" />
              <mxPoint x="1335" y="1720" />
              <mxPoint x="1315" y="1710" />
              <mxPoint x="1295" y="1700" />
              <mxPoint x="1275" y="1690" />
              <mxPoint x="1255" y="1680" />
              <mxPoint x="1235" y="1690" />
            </Array>
          </mxGeometry>
        </mxCell>
        <mxCell id="weSDCBt6Is57fs1nTCZ6-11" value="" style="curved=1;endArrow=none;html=1;rounded=0;endFill=0;fillColor=#d5e8d4;strokeColor=#82b366;" parent="1" edge="1">
          <mxGeometry width="50" height="50" relative="1" as="geometry">
            <mxPoint x="1535" y="1700" as="sourcePoint" />
            <mxPoint x="1375" y="1700" as="targetPoint" />
            <Array as="points">
              <mxPoint x="1515" y="1710" />
              <mxPoint x="1495" y="1720" />
              <mxPoint x="1475" y="1710" />
              <mxPoint x="1455" y="1700" />
              <mxPoint x="1435" y="1690" />
              <mxPoint x="1415" y="1680" />
              <mxPoint x="1395" y="1690" />
            </Array>
          </mxGeometry>
        </mxCell>
        <mxCell id="weSDCBt6Is57fs1nTCZ6-12" value="" style="endArrow=classic;html=1;rounded=0;" parent="1" edge="1">
          <mxGeometry width="50" height="50" relative="1" as="geometry">
            <mxPoint x="1735" y="1720" as="sourcePoint" />
            <mxPoint x="2275" y="1720" as="targetPoint" />
          </mxGeometry>
        </mxCell>
        <mxCell id="weSDCBt6Is57fs1nTCZ6-13" value="" style="endArrow=classic;html=1;rounded=0;" parent="1" edge="1">
          <mxGeometry width="50" height="50" relative="1" as="geometry">
            <mxPoint x="1735" y="1780" as="sourcePoint" />
            <mxPoint x="1735" y="1640" as="targetPoint" />
          </mxGeometry>
        </mxCell>
        <mxCell id="weSDCBt6Is57fs1nTCZ6-14" value="" style="curved=1;endArrow=none;html=1;rounded=0;endFill=0;fillColor=#dae8fc;strokeColor=#6c8ebf;" parent="1" edge="1">
          <mxGeometry width="50" height="50" relative="1" as="geometry">
            <mxPoint x="1895" y="1720" as="sourcePoint" />
            <mxPoint x="1735" y="1720" as="targetPoint" />
            <Array as="points">
              <mxPoint x="1875" y="1760" />
              <mxPoint x="1855" y="1780" />
              <mxPoint x="1835" y="1760" />
              <mxPoint x="1815" y="1720" />
              <mxPoint x="1795" y="1690" />
              <mxPoint x="1775" y="1670" />
              <mxPoint x="1755" y="1690" />
            </Array>
          </mxGeometry>
        </mxCell>
        <mxCell id="weSDCBt6Is57fs1nTCZ6-15" value="" style="curved=1;endArrow=none;html=1;rounded=0;endFill=0;fillColor=#dae8fc;strokeColor=#6c8ebf;" parent="1" edge="1">
          <mxGeometry width="50" height="50" relative="1" as="geometry">
            <mxPoint x="2055" y="1720" as="sourcePoint" />
            <mxPoint x="1895" y="1720" as="targetPoint" />
            <Array as="points">
              <mxPoint x="2035" y="1760" />
              <mxPoint x="2015" y="1780" />
              <mxPoint x="1995" y="1760" />
              <mxPoint x="1975" y="1720" />
              <mxPoint x="1955" y="1690" />
              <mxPoint x="1935" y="1670" />
              <mxPoint x="1915" y="1690" />
            </Array>
          </mxGeometry>
        </mxCell>
        <mxCell id="weSDCBt6Is57fs1nTCZ6-16" value="" style="curved=1;endArrow=none;html=1;rounded=0;endFill=0;fillColor=#d5e8d4;strokeColor=#82b366;" parent="1" edge="1">
          <mxGeometry width="50" height="50" relative="1" as="geometry">
            <mxPoint x="1975" y="1720" as="sourcePoint" />
            <mxPoint x="1815" y="1720" as="targetPoint" />
            <Array as="points">
              <mxPoint x="1955" y="1730" />
              <mxPoint x="1935" y="1740" />
              <mxPoint x="1915" y="1730" />
              <mxPoint x="1895" y="1720" />
              <mxPoint x="1875" y="1710" />
              <mxPoint x="1855" y="1700" />
              <mxPoint x="1835" y="1710" />
            </Array>
          </mxGeometry>
        </mxCell>
        <mxCell id="weSDCBt6Is57fs1nTCZ6-17" value="" style="curved=1;endArrow=none;html=1;rounded=0;endFill=0;fillColor=#d5e8d4;strokeColor=#82b366;" parent="1" edge="1">
          <mxGeometry width="50" height="50" relative="1" as="geometry">
            <mxPoint x="2135" y="1720" as="sourcePoint" />
            <mxPoint x="1975" y="1720" as="targetPoint" />
            <Array as="points">
              <mxPoint x="2115" y="1730" />
              <mxPoint x="2095" y="1740" />
              <mxPoint x="2075" y="1730" />
              <mxPoint x="2055" y="1720" />
              <mxPoint x="2035" y="1710" />
              <mxPoint x="2015" y="1700" />
              <mxPoint x="1995" y="1710" />
            </Array>
          </mxGeometry>
        </mxCell>
        <mxCell id="LHnI1R3NiuwewQXhLLGa-4" value="&lt;b&gt;Action [K, Td]&lt;/b&gt;" style="swimlane;fontStyle=0;childLayout=stackLayout;horizontal=1;startSize=30;horizontalStack=0;resizeParent=1;resizeParentMax=0;resizeLast=0;collapsible=1;marginBottom=0;whiteSpace=wrap;html=1;" parent="1" vertex="1">
          <mxGeometry x="1700" y="380" width="140" height="90" as="geometry" />
        </mxCell>
        <mxCell id="LHnI1R3NiuwewQXhLLGa-5" value="K: decay factor" style="text;strokeColor=none;fillColor=none;align=left;verticalAlign=middle;spacingLeft=4;spacingRight=4;overflow=hidden;points=[[0,0.5],[1,0.5]];portConstraint=eastwest;rotatable=0;whiteSpace=wrap;html=1;" parent="LHnI1R3NiuwewQXhLLGa-4" vertex="1">
          <mxGeometry y="30" width="140" height="30" as="geometry" />
        </mxCell>
        <mxCell id="LHnI1R3NiuwewQXhLLGa-6" value="Td: periodic time" style="text;strokeColor=none;fillColor=none;align=left;verticalAlign=middle;spacingLeft=4;spacingRight=4;overflow=hidden;points=[[0,0.5],[1,0.5]];portConstraint=eastwest;rotatable=0;whiteSpace=wrap;html=1;" parent="LHnI1R3NiuwewQXhLLGa-4" vertex="1">
          <mxGeometry y="60" width="140" height="30" as="geometry" />
        </mxCell>
        <mxCell id="LHnI1R3NiuwewQXhLLGa-8" value="&lt;b&gt;Observation [L, H]&lt;/b&gt;" style="swimlane;fontStyle=0;childLayout=stackLayout;horizontal=1;startSize=30;horizontalStack=0;resizeParent=1;resizeParentMax=0;resizeLast=0;collapsible=1;marginBottom=0;whiteSpace=wrap;html=1;" parent="1" vertex="1">
          <mxGeometry x="1900" y="380" width="160" height="90" as="geometry" />
        </mxCell>
        <mxCell id="LHnI1R3NiuwewQXhLLGa-9" value="L: length of the container" style="text;strokeColor=none;fillColor=none;align=left;verticalAlign=middle;spacingLeft=4;spacingRight=4;overflow=hidden;points=[[0,0.5],[1,0.5]];portConstraint=eastwest;rotatable=0;whiteSpace=wrap;html=1;" parent="LHnI1R3NiuwewQXhLLGa-8" vertex="1">
          <mxGeometry y="30" width="160" height="30" as="geometry" />
        </mxCell>
        <mxCell id="LHnI1R3NiuwewQXhLLGa-10" value="H: height of the filling fluid" style="text;strokeColor=none;fillColor=none;align=left;verticalAlign=middle;spacingLeft=4;spacingRight=4;overflow=hidden;points=[[0,0.5],[1,0.5]];portConstraint=eastwest;rotatable=0;whiteSpace=wrap;html=1;" parent="LHnI1R3NiuwewQXhLLGa-8" vertex="1">
          <mxGeometry y="60" width="160" height="30" as="geometry" />
        </mxCell>
        <mxCell id="3Ne9I0h-u8BXhpTjWBJN-3" style="edgeStyle=orthogonalEdgeStyle;rounded=0;orthogonalLoop=1;jettySize=auto;html=1;entryX=0;entryY=0.5;entryDx=0;entryDy=0;" parent="1" source="3Ne9I0h-u8BXhpTjWBJN-2" target="_BYFjhgskUyw7nxK_zSO-9" edge="1">
          <mxGeometry relative="1" as="geometry">
            <Array as="points">
              <mxPoint x="1250" y="564" />
            </Array>
          </mxGeometry>
        </mxCell>
        <mxCell id="3Ne9I0h-u8BXhpTjWBJN-2" value="" style="shape=image;html=1;verticalAlign=top;verticalLabelPosition=bottom;labelBackgroundColor=#ffffff;imageAspect=0;aspect=fixed;image=https://cdn1.iconfinder.com/data/icons/unicons-line-vol-5/24/robot-128.png" parent="1" vertex="1">
          <mxGeometry x="1200" y="451" width="98" height="98" as="geometry" />
        </mxCell>
        <mxCell id="3Ne9I0h-u8BXhpTjWBJN-4" style="edgeStyle=orthogonalEdgeStyle;rounded=0;orthogonalLoop=1;jettySize=auto;html=1;entryX=0.5;entryY=1;entryDx=0;entryDy=0;entryPerimeter=0;" parent="1" source="_BYFjhgskUyw7nxK_zSO-9" target="_BYFjhgskUyw7nxK_zSO-4" edge="1">
          <mxGeometry relative="1" as="geometry" />
        </mxCell>
        <mxCell id="-rBSmQY0otjVW8m-F1xZ-1" value="" style="endArrow=classic;startArrow=none;html=1;rounded=0;fillColor=#dae8fc;strokeColor=#6c8ebf;startFill=0;" parent="1" edge="1">
          <mxGeometry width="50" height="50" relative="1" as="geometry">
            <mxPoint x="1700" y="780" as="sourcePoint" />
            <mxPoint x="1820" y="780" as="targetPoint" />
          </mxGeometry>
        </mxCell>
        <mxCell id="6-dMtjn-IZ5Y9U33Z27y-1" value="" style="endArrow=classic;startArrow=none;html=1;rounded=0;fillColor=#dae8fc;strokeColor=#6c8ebf;startFill=0;" edge="1" parent="1">
          <mxGeometry width="50" height="50" relative="1" as="geometry">
            <mxPoint x="1760" y="840" as="sourcePoint" />
            <mxPoint x="1760" y="720" as="targetPoint" />
          </mxGeometry>
        </mxCell>
        <mxCell id="6-dMtjn-IZ5Y9U33Z27y-3" value="" style="curved=1;endArrow=none;html=1;rounded=0;startFill=0;" edge="1" parent="1">
          <mxGeometry width="50" height="50" relative="1" as="geometry">
            <mxPoint x="1830" y="810" as="sourcePoint" />
            <mxPoint x="1770" y="730" as="targetPoint" />
            <Array as="points">
              <mxPoint x="1820" y="810" />
              <mxPoint x="1790" y="800" />
              <mxPoint x="1780" y="790" />
              <mxPoint x="1770" y="760" />
            </Array>
          </mxGeometry>
        </mxCell>
        <mxCell id="6-dMtjn-IZ5Y9U33Z27y-4" value="" style="endArrow=none;dashed=1;html=1;dashPattern=1 3;strokeWidth=1;rounded=0;fillColor=#f8cecc;strokeColor=#b85450;" edge="1" parent="1">
          <mxGeometry width="50" height="50" relative="1" as="geometry">
            <mxPoint x="1777" y="810" as="sourcePoint" />
            <mxPoint x="1777" y="730" as="targetPoint" />
          </mxGeometry>
        </mxCell>
      </root>
    </mxGraphModel>
  </diagram>
</mxfile>
